<svg width="217" height="143" fill="none" xmlns="http://www.w3.org/2000/svg"><g clip-path="url(#clip0)"><path d="M187.302 142.083c16.402 0 29.698-1.324 29.698-2.957 0-1.633-13.296-2.957-29.698-2.957-16.401 0-29.698 1.324-29.698 2.957 0 1.633 13.297 2.957 29.698 2.957zm-168.909-2.842c5.874 0 10.636-.662 10.636-1.479 0-.816-4.762-1.478-10.636-1.478s-10.636.662-10.636 1.478c0 .817 4.762 1.479 10.636 1.479zM139.214 0H0v70.175h139.214V0z" fill="#E6E6E6"/><path d="M132.821 5.71H6.393v58.756H132.82V5.71z" fill="#fff"/><path d="M6.56 64.634l-.335-.336L23.202 47.24l5.327 5.352 9.352-9.396 11.483 11.537 19.532-19.625 8.879 8.92 19.414-19.506 10.891 10.943 19.956-20.052.335.336-20.291 20.389-10.891-10.943-19.414 19.506-8.879-8.92-19.532 19.625L37.88 43.87l-9.352 9.396-5.327-5.352-16.642 16.72z" fill="#5390D9"/><path d="M97.307 28.07a2.848 2.848 0 002.841-2.854 2.848 2.848 0 00-2.841-2.855 2.848 2.848 0 00-2.841 2.855 2.848 2.848 0 002.84 2.854zM38.118 46.625a2.848 2.848 0 002.841-2.855 2.848 2.848 0 00-2.84-2.854 2.848 2.848 0 00-2.842 2.854 2.848 2.848 0 002.841 2.855zm39.776.238a2.848 2.848 0 002.84-2.855 2.848 2.848 0 00-2.84-2.854 2.848 2.848 0 00-2.841 2.854 2.848 2.848 0 002.84 2.855zM50.193 57.568a2.848 2.848 0 002.84-2.855 2.848 2.848 0 00-2.84-2.855 2.848 2.848 0 00-2.841 2.855 2.848 2.848 0 002.84 2.855zm18.23-18.793a2.848 2.848 0 002.841-2.855 2.848 2.848 0 00-2.84-2.854 2.848 2.848 0 00-2.842 2.854 2.848 2.848 0 002.841 2.855zm39.539 0a2.848 2.848 0 002.841-2.855 2.848 2.848 0 00-2.841-2.854 2.848 2.848 0 00-2.841 2.854 2.848 2.848 0 002.841 2.855z" fill="#5390D9"/><path d="M15.052 130.494c1.153 4.282 5.102 6.934 5.102 6.934s2.08-4.291.926-8.572c-1.152-4.282-5.101-6.934-5.101-6.934s-2.08 4.29-.927 8.572z" fill="#E6E6E6"/><path d="M16.745 129.574c3.164 3.094 3.55 7.85 3.55 7.85s-4.742-.26-7.906-3.354c-3.163-3.094-3.55-7.85-3.55-7.85s4.743.26 7.906 3.354z" fill="#5390D9"/><path d="M177.333 33.072l1.812 18.003h14.912l-.717-27.365c0-5.89-4.053-11.042-9.915-11.042-5.862 0-9.675 4.912-9.675 10.802l-.956 27.605h2.431l2.108-18.003z" fill="#2F2E41"/><path d="M186.246 127.481s-.643 4.095-1.716 4.742c-1.073.647 5.578 2.155 5.578 2.155l1.073-6.466-4.935-.431z" fill="#FBBEBE"/><path d="M194.184 80.705l2.36 2.802-1.073 9.7-.858 19.185s1.717 16.598 0 17.029c-1.716.431-9.439.215-9.225-.863.215-1.077.429-1.94.858-3.448.429-1.509-.429-6.898-.429-6.898l1.073-6.036-3.862-26.082 11.156-5.389zm-7.723 50.871s-2.36-.431-2.575 0c-.214.431-4.291 4.958-4.934 4.958-.644 0-5.364 4.311-.429 4.527 4.934.215 13.087-3.665 13.087-3.665s-1.2-5.485-1.137-5.221c.064.264-4.012.479-4.012-.599z" fill="#2F2E41"/><path d="M183.886 121.661s6.007 6.682 6.221 7.329c.215.646 3.433 0 3.433 0l1.287-4.312-1.073-1.508-6.007-4.958-3.861 3.449z" fill="#FBBEBE"/><path d="M192.467 126.618l-3.111 2.942s3.969 6.112 3.969 6.758c0 .647.215 6.036 2.36 5.174 2.146-.862 2.36-9.485 2.36-9.485s-.214-8.837-1.502-9.484c-1.287-.647-4.108-.442-4.108-.442s1.749 4.322.032 4.537zM174.662 61.52s-1.073 3.45-1.287 4.312c-.215.862-1.502 3.233-1.502 6.897 0 3.665.429 7.976 0 8.407-.429.431-7.295 24.574-4.291 27.16 3.004 2.587 12.872 11.209 13.516 12.287.643 1.078.858 3.664 2.145 3.233 1.287-.431 6.222-4.742 6.436-5.604.215-.862-2.789-2.371-2.789-2.371s-6.007-8.838-7.508-8.623c-1.502.216-1.288-1.077-1.073-1.724.214-.647.643-1.078 0-1.078-.644 0-.215-1.724 0-2.586.214-.863 5.149-12.503 5.149-12.503l13.087-5.82s-.644-15.735-5.364-20.047l-1.073-2.586s-12.014-.862-15.446.646z" fill="#2F2E41"/><path d="M180.024 27.463s1.073 7.544-1.501 7.975c-2.575.431-4.72.216-4.72.431 0 .216 6.436 6.898 6.436 6.898l6.007-.43 5.363-5.82s-4.934-.863-4.934-3.88c0-3.019-.215-5.174-.215-5.174h-6.436z" fill="#FFB8B8"/><path d="M183.35 30.588c3.673 0 6.651-2.992 6.651-6.682 0-3.69-2.978-6.682-6.651-6.682-3.673 0-6.651 2.991-6.651 6.682 0 3.69 2.978 6.682 6.651 6.682z" fill="#FFB8B8"/><path d="M179.468 34.89s-10.386.98-11.029 3.782c-.644 2.802 4.29 20.262 4.934 21.77.644 1.51.429 2.587.429 2.587a8.449 8.449 0 016.865-1.509c4.076.863 9.869.432 9.869.432s1.931-7.976 2.36-8.838c.429-.862 2.145-5.605 2.145-6.898 0-1.293 2.575-6.682 2.575-6.682s-1.288-3.88-6.007-3.665c0 0-2.059-.925-2.639-.247-.579.678-3.798 3.696-7.874 2.403-4.076-1.293-1.628-3.136-1.628-3.136z" fill="#E6E6E6"/><path d="M193.539 38.456l4.076 1.078s3.004 10.993 3.218 11.209c.215.215.429 1.509.429 1.509s0 .215.429.862c.43.647 1.073.215.644 1.078-.429.862-1.073.43-.644 1.293.43.862.215 3.233.215 3.233s-1.073-4.095-4.934-3.018l-2.575-11.64-.858-5.604z" fill="#E6E6E6"/><path d="M194.887 40.52l-.015.049-7.066 22.367-4.639-1.035-5.016-1.119 7.082-23.065 9.654 2.802z" fill="#5390D9"/><path d="M172.59 38.456l-4.076 1.078s-3.004 10.993-3.218 11.209c-.215.215-.429 1.509-.429 1.509s0 .215-.43.862c-.429.647-1.072.215-.643 1.078.429.862 1.073.43.643 1.293-.429.862-.214 3.233-.214 3.233s1.073-4.095 4.934-3.018l2.575-11.64.858-5.604z" fill="#E6E6E6"/><path d="M165.509 55.054l-1.34 2.25s-.59 4.217 2.413 4.217c3.004 0 7.294-4.096 7.294-4.096s2.146-.862 3.433-.647c1.287.216 8.367 0 5.363-3.664-3.003-3.665-8.152 0-8.152 0l-5.363 2.587-2.789-1.51-.859.863z" fill="#FFB8B8"/><path d="M167.334 52.144l2.145 3.449s-4.934.646-5.363 1.724c-.429 1.078 1.93-5.604 1.93-5.604l1.288.43z" fill="#E6E6E6"/><path d="M177.811 21.55c4.32-2.34 6.095-2.241 11.468 0l1.433-3.51a2.502 2.502 0 00-.727-1.76 2.478 2.478 0 00-1.753-.731h-9.613c-.658 0-1.288.263-1.753.73a2.497 2.497 0 00-.727 1.762l1.672 3.509z" fill="#2F2E41"/><path opacity=".2" d="M194.872 40.569l-7.067 22.367-4.638-1.035 6.971-22.705 4.734 1.373z" fill="#000"/><path d="M191.609 39.196l-7.08 23.064 9.655 2.155 7.079-22.417-9.654-2.802z" fill="#5390D9"/><path d="M200.62 55.054l1.341 2.25s.59 4.217-2.413 4.217c-3.004 0-7.295-4.096-7.295-4.096s-2.145-.862-3.432-.647c-1.287.216-8.367 0-5.364-3.664 3.004-3.665 8.153 0 8.153 0l5.363 2.587 2.789-1.51.858.863z" fill="#FFB8B8"/><path d="M198.796 52.144l-2.146 3.449s4.935.646 5.364 1.724c.429 1.078-1.931-5.604-1.931-5.604l-1.287.43z" fill="#E6E6E6"/></g><defs><clipPath id="clip0"><path fill="#fff" d="M0 0h217v142.083H0z"/></clipPath></defs></svg>