<svg width="217" height="167" fill="none" xmlns="http://www.w3.org/2000/svg"><g clip-path="url(#clip0)"><path d="M2.323 67.82C8.296 29.103 28.937 1.154 53.164.034c12.809-.593 26.287 6.41 36.1 30.91 17.542 43.8-1.078 74.067-14.06 88.449-6.276 6.954-11.915 15.339-16.788 24.872-8.769 17.15-25.637 38.462-45.727 5.07C-1.87 125.132-1.656 93.609 2.323 67.819z" fill="#F2F2F2"/><path d="M217.001 102.139H42.399v63.368h174.602v-63.368z" fill="#3F3D56"/><path opacity=".1" d="M89.5 102.139l-47.1 32.279v-18.694l19.823-13.585h27.276zm46.546 0l-44.055 30.193-1.577 1.082-46.83 32.093H42.4v-17.883l30.176-20.678 1.01-.693 35.186-24.114h27.275z" fill="#000"/><path d="M47.532 134.023l-.47-.588c.046-.037 4.756-3.745 12.278-5.866a38.898 38.898 0 0113.419-1.386c5.605.407 11.179 2.059 16.565 4.909l-.352.665c-11.984-6.342-22.617-5.384-29.427-3.464-7.378 2.08-11.968 5.694-12.014 5.73z" fill="#F2F2F2"/><path d="M93.065 133.729c-2.248-.388-5.224-.55-7.368-.137l2.921-2.443.68-3.742c.701 2.064 2.316 4.564 3.767 6.322zm31.54 7.647a39.217 39.217 0 01-10.644-1.487c-7.522-2.121-12.232-5.829-12.278-5.866l.469-.588c.046.036 4.659 3.663 12.045 5.739 6.803 1.912 17.425 2.862 29.395-3.473l.353.665c-5.386 2.85-10.96 4.502-16.565 4.909-.924.067-1.849.101-2.775.101z" fill="#F2F2F2"/><path d="M147.687 133.729c-1.451 1.758-3.066 4.259-3.768 6.323l-.679-3.743-2.921-2.442c2.144.413 5.12.25 7.368-.138zm11.159.294l-.47-.588c.047-.037 4.756-3.745 12.279-5.866a38.9 38.9 0 0113.419-1.386c5.605.407 11.178 2.059 16.565 4.909l-.353.665c-11.983-6.342-22.617-5.384-29.426-3.464-7.378 2.08-11.968 5.694-12.014 5.73z" fill="#F2F2F2"/><path d="M204.38 133.729c-2.249-.388-5.225-.55-7.368-.137l2.92-2.443.68-3.742c.702 2.064 2.316 4.564 3.768 6.322z" fill="#F2F2F2"/><path d="M157.293 119.438H145.05v.376h12.243v-.376zm0 3.761H145.05v.376h12.243v-.376zm0 3.761H145.05v.376h12.243v-.376zm-54.998 14.666H90.052v.376h12.243v-.376zm0 3.761H90.052v.376h12.243v-.376zm0 3.761H90.052v.376h12.243v-.376zm111.691-7.522h-12.243v.376h12.243v-.376zm0 3.761h-12.243v.376h12.243v-.376zm0 3.761h-12.243v.376h12.243v-.376zM96.455 138.43a2.447 2.447 0 002.449-2.445 2.446 2.446 0 00-2.449-2.444 2.446 2.446 0 00-2.448 2.444 2.447 2.447 0 002.448 2.445zm54.811-3.385a2.447 2.447 0 002.449-2.444 2.448 2.448 0 00-2.449-2.445 2.448 2.448 0 00-2.449 2.445 2.447 2.447 0 002.449 2.444zm56.505 3.385a2.447 2.447 0 002.448-2.445 2.446 2.446 0 00-2.448-2.444 2.447 2.447 0 00-2.449 2.444 2.448 2.448 0 002.449 2.445z" fill="#5390D9"/><path d="M71.869 85.123l-3.647-3.904 3.91-3.64 3.647 3.903-3.91 3.64zm-3.066-3.884l3.086 3.303 3.309-3.08-3.086-3.304-3.309 3.081zm90.816-41.876l-3.647-3.903 3.91-3.641 3.647 3.903-3.91 3.641zm-3.066-3.883l3.086 3.303 3.309-3.081-3.086-3.303-3.309 3.08zm47.852 66.975h-5.347v-5.338h5.347v5.338zm-4.936-.41h4.524v-4.517h-4.524v4.517z" fill="#3F3D56"/><path d="M125.214 123.482a2.728 2.728 0 002.73-2.726 2.727 2.727 0 00-2.73-2.725 2.728 2.728 0 00-2.73 2.725 2.729 2.729 0 002.73 2.726z" fill="#5390D9"/><path d="M125.213 128.629a7.89 7.89 0 01-7.286-4.86 7.861 7.861 0 011.71-8.58 7.894 7.894 0 0112.133 1.193 7.861 7.861 0 011.329 4.374 7.875 7.875 0 01-2.312 5.565 7.9 7.9 0 01-5.574 2.308zm0-15.14a7.285 7.285 0 00-6.725 4.486 7.255 7.255 0 001.578 7.92 7.282 7.282 0 007.933 1.575 7.278 7.278 0 003.267-2.676 7.258 7.258 0 001.227-4.038 7.268 7.268 0 00-2.135-5.136 7.294 7.294 0 00-5.145-2.131zm7.387-58.371h-22.744v26.453H132.6V55.118z" fill="#F2F2F2"/><path d="M124.867 121.106l-.316-.308a16.107 16.107 0 003.238-5.654c1.074-3.228 1.599-8.326-2.002-14.281-3.685-6.093-3.851-11.041-3.341-14.12.554-3.35 1.969-5.228 2.029-5.306l.351.268c-.014.018-1.417 1.886-1.949 5.136-.491 3-.32 7.83 3.288 13.794 3.693 6.108 3.146 11.347 2.037 14.667-1.202 3.597-3.248 5.716-3.335 5.804z" fill="#3F3D56"/><path d="M141.432 81.791h-31.796V50.05h31.796v31.74zm-31.355-.44h30.914V50.489h-30.914v30.862z" fill="#3F3D56"/><path d="M135.691 59.307H116.26v.44h19.431v-.44zm0 4.849H116.26v.441h19.431v-.44zm0 4.85H116.26v.441h19.431v-.44z" fill="#3F3D56"/><path d="M32.018 146.115l-.798 7.708 4.526-.531.533-6.38-4.26-.797z" fill="#FFB9B9"/><path d="M20.036 87.634s-23.165 22.329-8.52 29.24h4.526s9.852-16.215 14.645-15.949l1.331 15.418-.799 31.101 5.858.266s3.462-15.684 3.196-24.456l6.124-32.43-26.36-3.19z" fill="#2F2E41"/><path d="M12.847 115.811l3.195 1.063s12.514-2.924 13.313-2.658l2.478-.017-.081-6.363H21.1l-8.254 7.975zm23.433 36.417s-4.794-2.126-5.593 0c-.798 2.127-.532 8.241-.532 8.241s1.065 1.861.532 3.987c-.532 2.127 2.13 3.19 5.592 2.127 3.461-1.063 3.462-3.722 3.462-3.722l-3.462-10.633zm3.993-44.923s3.728-2.127 3.461 1.063c-.266 3.19-1.597 6.114-1.597 6.114s3.461 9.038 0 9.835c-3.462.798-6.124-1.063-6.124-2.392s4.26-14.62 4.26-14.62z" fill="#2F2E41"/><path d="M28.558 34.47l.532 10.1 4.527 3.988 5.059-7.177v-7.177l-10.118.265z" fill="#FFB9B9"/><path d="M32.019 44.57l-3.048-2.26-2.011 3.058-9.053 5.316 5.325 13.823.266 13.557s-9.852 10.101-3.994 11.43c5.858 1.33 26.627 4.254 27.692 1.861 1.065-2.392-1.331-27.114-1.331-27.114l.799-21-7.988-2.883-6.657 4.213z" fill="#D0CDE1"/><path d="M15.776 61.406S13.646 76.47 17.64 76.47a18.367 18.367 0 006.923-1.329l-3.195-8.24 1.331-5.583-6.923.09z" fill="#FFB9B9"/><path d="M21.9 74.609l2.929.531s8.52-5.316 9.053-5.582c.533-.266-8.52-4.785-8.52-4.785l-6.125 2.392L21.9 74.61z" fill="#FFB9B9"/><path opacity=".1" d="M25.362 64.773l-3.845 1.502 1.182-4.958-6.923.09s-2.13 15.062 1.864 15.062a18.367 18.367 0 006.923-1.329l-.02-.052.287.052s8.52-5.316 9.053-5.582c.532-.266-8.52-4.785-8.52-4.785z" fill="#000"/><path d="M34.717 39.51c4.199 0 7.603-3.399 7.603-7.591s-3.404-7.59-7.603-7.59c-4.2 0-7.604 3.398-7.604 7.59s3.404 7.59 7.604 7.59z" fill="#FFB9B9"/><path d="M27.994 23.356l-1.485-.594s3.106-3.414 7.428-3.117L32.72 18.31s2.971-1.187 5.672 1.93c1.42 1.638 3.063 3.564 4.087 5.734h1.591l-.664 1.46 2.324 1.46-2.385-.263a8.063 8.063 0 01-.226 3.78l.064 1.154s-2.765-4.27-2.765-4.864v1.484s-1.485-1.336-1.485-2.227l-.81 1.04-.406-1.633-4.997 1.632.81-1.335-3.106.445 1.216-1.633s-3.511 1.93-3.646 3.562c-.136 1.633-1.891 3.711-1.891 3.711l-.81-1.484s-1.216-6.68 2.7-8.906z" fill="#2F2E41"/><path d="M41.338 56.798s-2.13 2.393-2.13 5.849l-14.112-.532s-3.728-.532-3.728 2.127V66.9s1.864-.798 2.93 0c1.064.797 12.514 7.709 18.105 5.05 5.592-2.658 6.923-13.025 6.923-13.025s-5.059-4.253-7.988-2.127z" fill="#FFB9B9"/><path d="M44.533 43.507l2.13-.265s4.26.531 3.728 8.772c-.532 8.24-.798 8.772-.798 8.772s-5.592-5.05-9.586-2.659l4.526-14.62zm-25.561 7.177h-1.065a9.837 9.837 0 00-2.13 6.114 29.376 29.376 0 01-.932 7.045l8.387-1.462-4.26-11.697z" fill="#D0CDE1"/><path d="M151.446 84.339h-.413v10.704h.413V84.339z" fill="#3F3D56"/><path d="M151.239 81.851c.435 1.17 1.177 2.623 1.964 3.524l-1.964-.71-1.964.71c.787-.9 1.529-2.353 1.964-3.524zm-49.346-6.788h-.413v10.704h.413V75.063z" fill="#3F3D56"/><path d="M101.686 72.575c.435 1.171 1.178 2.624 1.964 3.524l-1.964-.71-1.963.71c.786-.9 1.528-2.353 1.963-3.524zm68.755-5.757h-.413v10.704h.413V66.818z" fill="#3F3D56"/><path d="M170.235 64.33c.435 1.171 1.177 2.624 1.964 3.524l-1.964-.71-1.964.71c.787-.9 1.529-2.353 1.964-3.524z" fill="#3F3D56"/></g><defs><clipPath id="clip0"><path fill="#fff" d="M0 0h217v167H0z"/></clipPath></defs></svg>