<svg width="666" height="549" fill="none" xmlns="http://www.w3.org/2000/svg"><g clip-path="url(#clip0)"><path d="M125.581 425.116s247.808-206.783 390.53 0h-390.53zM532.221 549c63.388 0 114.774-8.007 114.774-17.884s-51.386-17.884-114.774-17.884-114.774 8.007-114.774 17.884S468.833 549 532.221 549z" fill="#F2F2F2"/><path d="M550.853 542.294c63.388 0 114.774-8.007 114.774-17.884s-51.386-17.884-114.774-17.884-114.774 8.007-114.774 17.884 51.386 17.884 114.774 17.884z" stroke="#3F3D56" stroke-miterlimit="10"/><path d="M599.661 339.385a11.574 11.574 0 0015.5-10.073 11.573 11.573 0 00-13.959-12.119l.29 5.956-2.818-5.105a11.53 11.53 0 00-5.941 6.518 11.563 11.563 0 001.172 10.249 11.566 11.566 0 005.756 4.574z" fill="#57B894"/><path d="M613.606 408.463c-.995-5.065 3.316-9.556 7.574-12.474 4.258-2.919 9.234-5.787 10.687-10.74 2.088-7.119-4.132-13.639-8.973-19.261a69.659 69.659 0 01-9.188-13.653 18.77 18.77 0 01-2.198-6.209c-.382-3.155.632-6.295 1.654-9.305a672.633 672.633 0 0110.915-29.829" stroke="#3F3D56" stroke-miterlimit="10"/><path d="M600.138 337.852a11.572 11.572 0 101.541-22.193l.29 5.956-2.819-5.104a11.527 11.527 0 00-5.941 6.518 11.573 11.573 0 006.929 14.823v0z" stroke="#3F3D56" stroke-miterlimit="10"/><path d="M612.191 304.935a11.565 11.565 0 018.33-7.337l.953 5.662 1.767-5.947a11.57 11.57 0 11-.482 23.135 11.576 11.576 0 01-10.803-8.339 11.57 11.57 0 01.235-7.174z" fill="#57B894"/><path d="M612.827 302.891a11.55 11.55 0 018.33-7.338l.953 5.662 1.766-5.946a11.573 11.573 0 0110.753 15.385 11.568 11.568 0 01-11.234 7.749 11.568 11.568 0 01-10.568-15.512v0z" stroke="#3F3D56" stroke-miterlimit="10"/><path d="M620.863 366.103a11.574 11.574 0 0014.306-5.723 11.564 11.564 0 00-4.064-14.861l-1.357 4.57-.963-5.729a11.571 11.571 0 10-7.922 21.743z" fill="#57B894"/><path d="M621.413 364.032a11.577 11.577 0 0014.307-5.723 11.57 11.57 0 00-4.064-14.861l-1.358 4.57-.962-5.729c-.01-.005-.02-.008-.03-.011a11.57 11.57 0 00-7.893 21.754v0z" stroke="#3F3D56" stroke-miterlimit="10"/><path d="M608.814 385.32a11.564 11.564 0 0018.373 7.219 11.561 11.561 0 003.483-14.15 11.566 11.566 0 00-19.626-2.131l5.156 7.76-7.045-4.119a11.446 11.446 0 00-.341 5.421z" fill="#57B894"/><path d="M609.291 383.786a11.565 11.565 0 0018.374 7.22 11.568 11.568 0 003.483-14.151 11.573 11.573 0 00-13.131-6.324 11.56 11.56 0 00-6.496 4.194l5.157 7.76-7.046-4.119a11.466 11.466 0 00-.341 5.42v0z" stroke="#3F3D56" stroke-miterlimit="10"/><path d="M597.538 415.324s10.213-4.002 13.291-6.193c3.077-2.191 15.709-4.808 16.473-1.293.763 3.514 15.347 17.479 3.817 17.572-11.53.093-26.79 1.891-29.862.02-3.072-1.871-3.719-10.106-3.719-10.106z" fill="#656380"/><path opacity=".2" d="M631.325 424.186c-11.53.093-26.79 1.892-29.862.021-2.34-1.425-3.272-6.537-3.584-8.896l-.341.013s.647 8.235 3.719 10.106c3.072 1.871 18.332.073 29.862-.02 3.329-.027 4.478-1.211 4.415-2.965-.462 1.06-1.732 1.721-4.209 1.741z" fill="#000"/><path d="M154.385 307.753h-27.053a8.832 8.832 0 00-8.832 8.831v100.074a8.832 8.832 0 008.832 8.831h27.053a8.832 8.832 0 008.832-8.831V316.584a8.832 8.832 0 00-8.832-8.831zm84.963-70.791h-27.053a8.832 8.832 0 00-8.832 8.831v170.865a8.832 8.832 0 008.832 8.831h27.053a8.832 8.832 0 008.832-8.831V245.793a8.832 8.832 0 00-8.832-8.831zm84.963-49.181h-27.053a8.832 8.832 0 00-8.832 8.831v220.046a8.832 8.832 0 008.832 8.831h27.053a8.832 8.832 0 008.832-8.831V196.612a8.832 8.832 0 00-8.832-8.831zm84.963-46.945h-27.053a8.832 8.832 0 00-8.832 8.831v266.991a8.832 8.832 0 008.832 8.831h27.053a8.832 8.832 0 008.832-8.831V149.667a8.832 8.832 0 00-8.832-8.831zm84.962-81.968h-27.053a8.831 8.831 0 00-8.832 8.83v348.96a8.832 8.832 0 008.832 8.831h27.053a8.832 8.832 0 008.832-8.831V67.698a8.831 8.831 0 00-8.832-8.83z" fill="#5390D9"/><path d="M160.348 301.792h-27.053a8.83 8.83 0 00-8.832 8.83v100.075a8.832 8.832 0 008.832 8.831h27.053a8.832 8.832 0 008.832-8.831V310.622a8.83 8.83 0 00-8.832-8.83zm84.963-70.791h-27.053a8.832 8.832 0 00-8.832 8.831v170.865a8.832 8.832 0 008.832 8.831h27.053a8.832 8.832 0 008.832-8.831V239.832a8.832 8.832 0 00-8.832-8.831zm84.962-49.181H303.22a8.832 8.832 0 00-8.832 8.831v220.046a8.832 8.832 0 008.832 8.831h27.053a8.832 8.832 0 008.832-8.831V190.651a8.832 8.832 0 00-8.832-8.831zm84.963-46.945h-27.053a8.83 8.83 0 00-8.832 8.83v266.992a8.832 8.832 0 008.832 8.831h27.053a8.832 8.832 0 008.832-8.831V143.705a8.831 8.831 0 00-8.832-8.83zm84.963-81.968h-27.053c-4.878 0-8.833 3.953-8.833 8.83v348.96a8.832 8.832 0 008.833 8.831h27.053a8.832 8.832 0 008.832-8.831V61.737a8.832 8.832 0 00-8.832-8.83zm141.492 372.955H0" stroke="#3F3D56" stroke-miterlimit="10"/><path d="M601.224 354.382s7.014 25.246-1.871 28.986c-8.884 3.74-6.078-28.051-6.078-28.051l7.949-.935z" fill="#A0616A"/><path d="M537.633 516.14s-6.546-.467-8.884.935a5.638 5.638 0 01-4.676.468s-10.287-.935-6.546 4.208c3.741 5.142 7.481 7.012 7.481 9.35 0 2.337 15.431 2.337 15.898 0 .468-2.338.935-14.493 0-14.961-.935-.467-3.273 0-3.273 0zm17.3 0s6.546-.467 8.884.935a5.638 5.638 0 004.676.468s10.287-.935 6.546 4.208c-3.74 5.142-7.481 7.012-7.481 9.35 0 2.337-15.43 2.337-15.898 0-.468-2.338-.935-14.493 0-14.961.935-.467 3.273 0 3.273 0z" fill="#575A89"/><path d="M518.461 349.24s-3.273 73.866-1.402 77.606c1.87 3.74 8.416 66.854 7.481 70.594-.935 3.74-5.611 19.168 0 21.505 5.611 2.338 17.768 0 17.768 0s3.273-18.7 1.871-28.518c-1.403-9.817-1.871-50.958-1.871-50.958l9.352-43.011 3.273 40.673s.935 55.634-5.611 66.854c-6.546 11.22 2.338 15.896 2.338 15.896s17.768 2.337 19.639 1.87c1.87-.468-1.403-18.701 0-26.648 1.402-7.948 4.675-52.361 7.481-63.114 2.805-10.753 18.703-70.594 7.014-82.749-11.69-12.155-67.333 0-67.333 0z" fill="#3F3D56"/><path d="M552.595 200.105c9.038 0 16.365-7.326 16.365-16.363 0-9.037-7.327-16.363-16.365-16.363-9.038 0-16.366 7.326-16.366 16.363 0 9.037 7.328 16.363 16.366 16.363z" fill="#A0616A"/><path d="M540.438 191.222s2.806 22.44 1.403 22.908c-1.403.467 24.782 0 24.782 0s-5.143-13.558 0-24.311l-26.185 1.403z" fill="#A0616A"/><path d="M540.438 209.455s11.397-11.221 24.87 0l.872 3.344-7.038-.072h-18.704v-3.272z" fill="#F2F2F2"/><path d="M596.081 352.98c-1.08.215-3.727.654-7.177 1.178-11.489 1.735-31.848 4.362-32.568 2.562-.935-2.338-4.208-10.753-6.546-7.013s-.935 7.013-10.754 7.48c-6.682.318-16.394-.663-21.771-2.206-2.525-.725-4.096-1.571-3.947-2.469.468-2.805 5.611-56.101 5.611-61.243 0-5.143 1.871-29.921 1.871-29.921l-13.439-26.437-1.056-2.081s1.402-5.142 5.611-6.077c4.208-.935 24.314-12.623 24.314-12.623s4.208-6.545 12.157-6.078c7.949.468 9.82-2.805 20.574 6.078 0 0 13.092 5.61 17.768 8.415 4.676 2.805 9.82 2.805 10.287 7.48.094.94-.416 2.749-1.29 5.035-3.203 8.378-11.297 23.203-12.564 25.512l-.173.309s-.244 8.406.014 18.247v.023c.252 9.439.963 20.196 2.791 26.143 3.741 12.155 14.963 46.751 10.287 47.686z" fill="#575A89"/><path d="M573.841 177.025a11.14 11.14 0 00-1.85-4.133 22.322 22.322 0 00-3.333-9.616 10.092 10.092 0 00-2.987-3.447 8.818 8.818 0 00-4.699-1.171c-.298-.005-.835.086-1.318.108a19.03 19.03 0 00-.934-.262c-.182-.406-.544-1.589-.645-1.509l-1.363 1.083a26.78 26.78 0 00-1.738-.24l-.635-1.812a12.424 12.424 0 00-.901 1.693 27.219 27.219 0 00-1.738-.029l-1.159-1.114a1.63 1.63 0 01-1.279 1.253c-.533.054-1.064.126-1.593.211l-.129-.001c-2.854-.071-5.925-.199-8.312 1.367a8.193 8.193 0 00-2.646 3.003c-.292.198-.585.395-.869.606a9.493 9.493 0 00-2.448 2.427c-.481.82-.845 1.703-1.083 2.624a25.143 25.143 0 00-1.247 8.594 12.751 12.751 0 003.136 7.961c1.224 1.315 2.78 2.286 4.006 3.599 2.523 2.704 2.996 6.476 5.155 9.337 2.283 3.027 6.45 5.018 10.11 5.589a16.892 16.892 0 0012.581-3.137 7.795 7.795 0 002.142-2.245c1.27-2.197.732-4.958 1.203-7.451.884-4.674 5.345-8.595 4.573-13.288z" fill="#3F3D56"/><path d="M511.449 355.785s7.013 25.245-1.871 28.985c-8.884 3.74-6.079-28.05-6.079-28.05l7.95-.935z" fill="#A0616A"/><path opacity=".1" d="M519.86 298.496s-3.068 45.517-2.595 56.485c-2.525-.725-4.096-1.571-3.947-2.469.468-2.805 5.611-56.101 5.611-61.243 0-5.143 1.871-29.921 1.871-29.921l-13.439-26.437c.215-1.31.346-2.081.346-2.081l6.78 14.259 9.586 2.571-4.213 48.836z" fill="#000"/><path d="M509.577 230.025l-3.273 2.805s-4.208 24.778-3.74 30.856c.467 6.077-9.82 98.177-1.871 98.177s16.833-1.403 15.431-4.676c-1.403-3.272 2.335-58.691 2.335-58.691l4.211-48.836-13.093-19.635z" fill="#575A89"/><path opacity=".1" d="M595.725 235.06c-3.203 8.378-11.297 23.203-12.564 25.512.038-5.979.061-10.21.061-10.21l9.819-20.103 2.104-1.636s.225 2.473.58 6.437zm.356 117.92c-1.081.215-3.727.654-7.178 1.178-1.791-13.24-6.579-51.314-6.275-54.9.15-1.767.276-10.5.374-20.107.253 9.439.963 20.196 2.792 26.143 3.74 12.155 14.963 46.751 10.287 47.686z" fill="#000"/><path d="M590.002 226.752l7.014 1.87s4.675 51.894 5.143 60.777c.468 8.882 6.079 63.581 5.143 65.918-.935 2.338-15.43 5.611-15.897 3.273-.468-2.338-7.265-55.084-6.906-59.332.359-4.249-1.978-48.195-1.978-48.195l7.481-24.311z" fill="#575A89"/><path d="M146.448 256.709l84.963-70.79 85.708-48.436 84.962-46.945 84.963-81.969" stroke="#3F3D56" stroke-miterlimit="10"/><path d="M144.213 268.632a8.197 8.197 0 100-16.394 8.197 8.197 0 100 16.394zm84.963-70.791a8.197 8.197 0 100-16.393 8.196 8.196 0 100 16.393zm85.707-48.436a8.197 8.197 0 100-16.393 8.197 8.197 0 100 16.393zm84.963-46.945a8.198 8.198 0 100-16.393 8.198 8.198 0 100 16.393zm84.963-81.968a8.198 8.198 0 100-16.394 8.198 8.198 0 100 16.394z" fill="#F2F2F2"/><path d="M146.449 264.906a8.197 8.197 0 100-16.394 8.197 8.197 0 100 16.394zm84.962-70.791a8.196 8.196 0 100-16.393 8.197 8.197 0 100 16.393zm85.708-48.435a8.197 8.197 0 100-16.394 8.197 8.197 0 100 16.394zm84.963-46.946a8.197 8.197 0 100-16.393 8.197 8.197 0 100 16.393zm84.962-81.968a8.197 8.197 0 100-16.393 8.197 8.197 0 100 16.393z" stroke="#3F3D56" stroke-miterlimit="10"/></g><defs><clipPath id="clip0"><path fill="#fff" d="M0 0h666v549H0z"/></clipPath></defs></svg>