<svg width="15" height="15" fill="none" xmlns="http://www.w3.org/2000/svg"><path fill-rule="evenodd" clip-rule="evenodd" d="M12.814 2.067A7.46 7.46 0 0010.393.534 7.806 7.806 0 007.531 0C3.415 0 .064 3.162.062 7.048c0 1.242.344 2.454.997 3.523L0 14.223l3.96-.98a7.826 7.826 0 003.568.857h.004c4.115 0 7.466-3.161 7.468-7.047a6.667 6.667 0 00-.564-2.7 6.998 6.998 0 00-1.622-2.286zM7.532 12.911h-.003a6.478 6.478 0 01-3.16-.817l-.226-.127-2.35.581.627-2.161-.147-.222a5.607 5.607 0 01-.95-3.117C1.326 3.818 4.11 1.19 7.535 1.19a6.488 6.488 0 012.377.444 6.202 6.202 0 012.012 1.274 5.817 5.817 0 011.347 1.9c.312.712.471 1.475.469 2.245-.002 3.23-2.786 5.858-6.207 5.858zm3.405-4.388c-.187-.089-1.104-.514-1.276-.573-.17-.059-.294-.088-.419.088a10.65 10.65 0 01-.591.69c-.11.118-.218.132-.405.044-.186-.088-.788-.274-1.5-.874a5.362 5.362 0 01-1.039-1.22c-.109-.177-.011-.272.083-.36.084-.078.186-.205.279-.308.093-.103.124-.176.186-.294.063-.117.032-.22-.015-.308-.047-.089-.42-.956-.576-1.308-.15-.342-.305-.296-.42-.3a8.51 8.51 0 00-.356-.007.721.721 0 00-.499.22c-.171.176-.653.602-.653 1.469 0 .866.67 1.704.762 1.822.093.118 1.316 1.896 3.188 2.659.446.181.794.29 1.064.371.447.135.854.115 1.176.07.358-.05 1.104-.425 1.26-.837.155-.411.155-.764.108-.837-.046-.074-.172-.119-.357-.207z" fill="#1C2363"/></svg>