<svg width="14" height="15" fill="none" xmlns="http://www.w3.org/2000/svg"><path d="M7 0C5.097 0 4.86.01 4.115.041c-.748.038-1.253.155-1.7.332-.467.179-.89.46-1.24.821a3.454 3.454 0 00-.808 1.26C.193 2.907.077 3.42.04 4.18.007 4.938 0 5.178 0 7.11c0 1.934.01 2.175.04 2.931.037.758.153 1.274.327 1.727.176.475.452.904.809 1.26a3.39 3.39 0 001.24.821c.446.174.954.294 1.7.332.744.034.981.04 2.884.04s2.14-.008 2.885-.04c.745-.038 1.253-.158 1.7-.332.467-.179.89-.46 1.24-.822.357-.353.634-.783.808-1.259.171-.453.29-.97.326-1.727.034-.757.041-.997.041-2.93 0-1.934-.01-2.175-.04-2.931-.037-.758-.156-1.276-.327-1.727a3.493 3.493 0 00-.809-1.26 3.372 3.372 0 00-1.24-.821c-.446-.177-.954-.294-1.7-.332C9.14.007 8.904 0 7 0zm0 1.28c1.869 0 2.092.01 2.83.042.682.032 1.053.148 1.3.245.304.115.58.296.806.532.232.23.41.51.522.818.096.25.21.627.242 1.32.031.75.04.977.04 2.875 0 1.898-.009 2.125-.043 2.876-.037.692-.15 1.069-.246 1.319-.133.334-.28.567-.525.82a2.204 2.204 0 01-.807.53c-.243.097-.62.213-1.303.245-.743.032-.962.042-2.835.042-1.874 0-2.092-.01-2.836-.044-.68-.038-1.057-.153-1.303-.25a2.193 2.193 0 01-.805-.534 2.14 2.14 0 01-.523-.82c-.099-.246-.21-.629-.247-1.324-.025-.745-.037-.976-.037-2.87 0-1.894.012-2.126.037-2.88.036-.696.148-1.077.247-1.325.12-.338.277-.57.523-.82a2.1 2.1 0 01.805-.533c.246-.097.613-.213 1.297-.247.742-.027.961-.037 2.832-.037L7 1.28zm0 2.181c-.472 0-.94.095-1.375.278a3.59 3.59 0 00-1.166.791 3.654 3.654 0 00-.78 1.185 3.7 3.7 0 00.78 3.98c.333.338.73.607 1.166.79a3.541 3.541 0 002.75 0 3.589 3.589 0 001.166-.79c.334-.34.599-.742.78-1.185a3.698 3.698 0 00-.78-3.98 3.589 3.589 0 00-1.166-.791A3.543 3.543 0 007 3.461zm0 6.022c-1.29 0-2.333-1.06-2.333-2.37C4.667 5.801 5.71 4.741 7 4.741c1.29 0 2.333 1.06 2.333 2.37S8.29 9.483 7 9.483zm4.579-6.167a.862.862 0 01-.247.604.835.835 0 01-1.37-.277.865.865 0 01.181-.93.84.84 0 01.594-.25.85.85 0 01.842.853z" fill="#1C2363"/></svg>