<svg width="15" height="15" fill="none" xmlns="http://www.w3.org/2000/svg"><path d="M11.08 7.796v2.59H9.499V7.969c0-.606-.23-1.02-.803-1.02-.437 0-.698.279-.812.549a.987.987 0 00-.053.366v2.522H6.246s.022-4.092 0-4.516H7.83v.64l-.01.014h.01V6.51c.21-.308.586-.746 1.428-.746 1.041 0 1.823.645 1.823 2.032zM4.59 3.692c-.542 0-.897.338-.897.78 0 .435.345.782.876.782h.01c.553 0 .896-.348.896-.781-.01-.443-.343-.78-.886-.78zm-.803 6.694h1.584V5.87H3.787v4.516z" fill="#1C2363"/><path d="M2.955 1.4a1.52 1.52 0 00-1.045.411 1.365 1.365 0 00-.433.99v8.406c0 .372.156.728.433.99.277.264.653.411 1.045.411h8.865a1.52 1.52 0 001.044-.41c.277-.263.433-.62.433-.99V2.801c0-.372-.156-.728-.433-.99A1.52 1.52 0 0011.82 1.4H2.955zm0-1.4h8.865a3.04 3.04 0 012.09.82 2.73 2.73 0 01.864 1.982v8.405a2.73 2.73 0 01-.865 1.981 3.04 3.04 0 01-2.09.821H2.956a3.039 3.039 0 01-2.09-.82A2.73 2.73 0 010 11.206V2.802C0 2.059.311 1.346.865.82A3.039 3.039 0 012.955 0z" fill="#1C2363"/></svg>