<svg width="182" height="170" fill="none" xmlns="http://www.w3.org/2000/svg"><g clip-path="url(#clip0)"><path d="M144.48 120.783s22.442 1.162 17.215 8.241-18.963-4.152-18.963-4.152l1.748-4.089z" fill="#FFB8B8"/><path d="M103.124 53.357l4.568 1.144s2.665 8.01 4.568 15.257c1.903 7.247 5.71 28.99 5.71 28.99l29.511 20.723-3.519 7.89-39.315-15.526-8.755-34.448 7.232-24.03z" fill="#575A89"/><path opacity=".2" d="M107.422 67.575l-1.703 35.725 3.553 10.621-10.407-7.647 8.557-38.7z" fill="#000"/><path d="M113.592 130.978s4.949 13.35 5.71 22.505a851.199 851.199 0 001.523 16.401h-23.22l-4.568-6.866v6.866H66.01s-7.614-24.793-4.568-27.844c3.045-3.052 31.975-16.021 31.975-16.021l20.175 4.959z" fill="#2F2E41"/><path d="M157.838 169.536H23.474V170h134.364v-.464z" fill="#3F3D56"/><path d="M84.472 38.862c7.989 0 14.465-6.49 14.465-14.494 0-8.005-6.476-14.495-14.465-14.495s-14.465 6.49-14.465 14.495c0 8.005 6.476 14.494 14.465 14.494z" fill="#FFB8B8"/><path d="M73.433 30.47l-1.142 16.784 14.465 19.453 7.233-18.309s-6.472-4.196-2.665-12.969l-17.891-4.958z" fill="#FFB8B8"/><path d="M115.685 134.22c0 3.434-9.517 8.773-9.517 8.773v1.907l-3.806 1.908-8.374-16.782-2.283 18.306s-16.75 2.672-22.078 0c-5.331-2.669-7.995-1.524-15.608-4.194-7.614-2.67 3.045-38.525 3.045-38.525l-7.613-55.308 16.633-8.333.876-.44 2.287-.422 3.506-.649 11.718 7.937.944 4.96.58 3.051 3.044-3.434 2.299-7.576 16.355 9.103-4.568 36.616s12.56 39.67 12.56 43.102z" fill="#575A89"/><path d="M59.728 146.045s17.51 14.113 9.136 16.783c-8.374 2.67-12.942-14.495-12.942-14.495l3.806-2.288z" fill="#FFB8B8"/><path d="M53.258 51.068l-3.807-.763s-5.71 3.052-6.09 9.154c-.381 6.103-5.33 48.824-5.33 48.824l15.988 43.102 12.943-4.959L54.4 105.994l9.516-35.091-10.658-19.835z" fill="#575A89"/><path d="M86.145 62.708c.767 0 1.388-.622 1.388-1.39a1.389 1.389 0 10-2.775 0c0 .768.621 1.39 1.387 1.39zm0 9.038a1.39 1.39 0 001.388-1.39 1.389 1.389 0 10-2.775 0c0 .767.621 1.39 1.387 1.39zm7.864 59.555a1.39 1.39 0 001.387-1.391 1.39 1.39 0 00-1.387-1.39 1.39 1.39 0 00-1.388 1.39 1.39 1.39 0 001.388 1.391zM72.26 9.519l-2.675-1.073s5.592-6.168 13.37-5.631L80.767.4s5.348-2.145 10.21 3.486c2.556 2.96 5.513 6.44 7.356 10.36h2.864l-1.195 2.637 4.183 2.637-4.294-.473a14.78 14.78 0 01.117 4.374 5.664 5.664 0 01-2.068 3.702s-3.317-6.878-3.317-7.951v2.682s-2.674-2.414-2.674-4.023l-1.458 1.877h-9.724l1.459-2.413-5.591.804 2.188-2.95-8.657 12.181S65.21 13.541 72.26 9.52z" fill="#2F2E41"/><path d="M158.277 112.053c12.772 0 23.126-10.375 23.126-23.173 0-12.799-10.354-23.174-23.126-23.174-12.773 0-23.127 10.375-23.127 23.174 0 12.798 10.354 23.173 23.127 23.173z" fill="#3F3D56"/><path opacity=".1" d="M158.276 108.809c10.985 0 19.889-8.923 19.889-19.93 0-11.006-8.904-19.928-19.889-19.928-10.984 0-19.888 8.922-19.888 19.929 0 11.006 8.904 19.929 19.888 19.929z" fill="#000"/><path d="M157.323 100.639v-2.9c-1.463-.029-2.977-.546-3.86-1.264l.605-1.924a6.164 6.164 0 003.633 1.235c1.792 0 3.003-1.177 3.003-2.814 0-1.58-.984-2.556-2.851-3.418-2.574-1.149-4.163-2.47-4.163-4.968 0-2.384 1.488-4.193 3.81-4.624v-2.9h1.564v2.785a6.132 6.132 0 013.28 1.005l-.631 1.896a5.569 5.569 0 00-3.179-.977c-1.943 0-2.674 1.321-2.674 2.47 0 1.493.933 2.24 3.128 3.274 2.599 1.206 3.911 2.7 3.911 5.255 0 2.27-1.388 4.395-3.987 4.883v2.986h-1.589z" fill="#5390D9"/><path opacity=".2" d="M57.817 116.994l9.25 28.951-7.4-30.125-1.85 1.174z" fill="#000"/><path d="M10.66 60.436H4.787a.965.965 0 01-.965-.967v-8.456a.97.97 0 01.965-.967h5.871a.965.965 0 01.965.967v8.456a.968.968 0 01-.965.967zM4.787 50.51a.502.502 0 00-.502.504v8.456a.505.505 0 00.502.504h5.871a.502.502 0 00.503-.504v-8.456a.505.505 0 00-.503-.504H4.79zm16.597 9.926h-5.302a1.25 1.25 0 01-1.25-1.252V42.106a1.255 1.255 0 011.25-1.253h5.302a1.25 1.25 0 011.25 1.253v17.078a1.255 1.255 0 01-1.25 1.252zm-5.302-19.119a.787.787 0 00-.787.789v17.078a.79.79 0 00.787.789h5.302a.788.788 0 00.787-.789V42.106a.79.79 0 00-.787-.789h-5.302zm16.105 19.119h-4.893a1.455 1.455 0 01-1.454-1.457V33.854a1.46 1.46 0 011.454-1.457h4.893a1.455 1.455 0 011.454 1.457V58.98a1.461 1.461 0 01-1.454 1.457zM27.294 32.86a.992.992 0 00-.992.994V58.98a.996.996 0 00.992.994h4.893a.992.992 0 00.992-.994V33.854a.996.996 0 00-.992-.994h-4.893z" fill="#3F3D56"/><path d="M9.926 51.656H5.522v7.17h4.404v-7.17zm11.007-9.1H16.53v16.27h4.403v-16.27zM31.942 34.1H27.54v24.726h4.403V34.099z" fill="#5390D9"/><path d="M167.203 33.787h-30.758a.23.23 0 01-.231-.231V2.272a.23.23 0 01.068-.164.23.23 0 01.327 0 .233.233 0 01.067.164v31.052h30.527c.061 0 .12.024.164.068a.233.233 0 01-.164.395zM36.77 63.68H.232A.232.232 0 010 63.45V27.067a.232.232 0 01.395-.164.232.232 0 01.068.164v36.15H36.77a.23.23 0 01.231.232.232.232 0 01-.231.232z" fill="#3F3D56"/><path d="M147.06 30.883h-5.871a.965.965 0 01-.965-.967v-8.457a.968.968 0 01.965-.967h5.871a.965.965 0 01.965.967v8.457a.968.968 0 01-.965.967zm-5.871-9.927a.502.502 0 00-.503.503v8.457a.501.501 0 00.503.504h5.871a.502.502 0 00.502-.504v-8.457a.505.505 0 00-.502-.503h-5.871zm17.894 9.927h-5.404a1.199 1.199 0 01-1.199-1.201V14.364a1.206 1.206 0 011.199-1.2h5.404c.318 0 .623.126.847.351.225.226.351.53.352.85v15.317a1.206 1.206 0 01-1.199 1.201zm-5.404-17.256a.736.736 0 00-.736.737v15.318a.739.739 0 00.736.738h5.404a.736.736 0 00.736-.738V14.364a.739.739 0 00-.736-.738h-5.404z" fill="#3F3D56"/><path d="M146.22 22.183h-4.404v7.17h4.404v-7.17zm12.363-7.096h-4.403v13.872h4.403V15.087zm-14.506 2.943c1.15 0 2.082-.934 2.082-2.086a2.084 2.084 0 00-2.082-2.086 2.083 2.083 0 00-2.081 2.086c0 1.152.932 2.085 2.081 2.085zm12.257-7.88c1.15 0 2.082-.933 2.082-2.085a2.084 2.084 0 00-2.082-2.086 2.083 2.083 0 00-2.081 2.086c0 1.152.932 2.086 2.081 2.086z" fill="#5390D9"/></g><defs><clipPath id="clip0"><path fill="#fff" d="M0 0h181.402v170H0z"/></clipPath></defs></svg>