<svg width="14" height="15" viewBox="0 0 14 15" fill="none" xmlns="http://www.w3.org/2000/svg">
<path d="M7 0C5.09707 0 4.85992 0.00933495 4.1152 0.0413405C3.36742 0.0786803 2.86161 0.196478 2.4153 0.372509C1.9482 0.55166 1.52517 0.832151 1.17571 1.19443C0.818115 1.54862 0.541866 1.97862 0.366671 2.45376C0.193399 2.90717 0.0774472 3.42104 0.0406926 4.18072C0.00700088 4.93774 0 5.17823 0 7.11145C0 9.04467 0.00918865 9.2856 0.0406926 10.0422C0.0774472 10.7996 0.193399 11.3157 0.366671 11.7691C0.543014 12.2437 0.819109 12.6734 1.17571 13.0285C1.52435 13.3918 1.94761 13.6724 2.4153 13.8504C2.86161 14.0242 3.36961 14.1442 4.1152 14.1816C4.86036 14.2158 5.09707 14.2229 7 14.2229C8.90293 14.2229 9.14008 14.2136 9.8848 14.1816C10.6304 14.1442 11.1384 14.0238 11.5847 13.8504C12.0518 13.6712 12.4748 13.3907 12.8243 13.0285C13.1823 12.6747 13.4587 12.2446 13.6333 11.7691C13.8044 11.3157 13.9226 10.7996 13.9593 10.0422C13.993 9.28516 14 9.04467 14 7.11145C14 5.17823 13.9908 4.9373 13.9593 4.18072C13.9226 3.42326 13.804 2.9045 13.6333 2.45376C13.457 1.97921 13.1809 1.54945 12.8243 1.19443C12.476 0.830672 12.0527 0.549953 11.5847 0.372509C11.1384 0.196478 10.6304 0.0786803 9.8848 0.0413405C9.13964 0.00711234 8.90293 0 7 0ZM7 1.28022C8.8688 1.28022 9.09195 1.28956 9.83054 1.32156C10.5118 1.35401 10.8829 1.46959 11.1292 1.56738C11.4338 1.68159 11.7094 1.86337 11.9361 2.09947C12.1681 2.32877 12.3463 2.60816 12.4576 2.91695C12.5539 3.16721 12.6676 3.54417 12.6996 4.23629C12.7311 4.98664 12.7403 5.21379 12.7403 7.11189C12.7403 9.01 12.7311 9.23715 12.697 9.9875C12.6602 10.6796 12.5464 11.0566 12.4506 11.3068C12.318 11.6407 12.1701 11.8741 11.926 12.1265C11.6986 12.3612 11.4231 12.5421 11.1191 12.6564C10.8759 12.7542 10.4996 12.8698 9.81566 12.9022C9.07313 12.9342 8.85436 12.9436 6.98075 12.9436C5.10714 12.9436 4.8888 12.9342 4.14539 12.8996C3.46412 12.8622 3.08826 12.7466 2.84192 12.6493C2.50938 12.5146 2.28141 12.3644 2.03725 12.1163C1.79091 11.866 1.63427 11.6278 1.5135 11.2966C1.41549 11.0495 1.30348 10.6672 1.26716 9.97239C1.24222 9.22693 1.2304 8.99578 1.2304 7.10123C1.2304 5.20757 1.24222 4.97597 1.26716 4.22117C1.30348 3.52639 1.41549 3.14499 1.5135 2.89694C1.63427 2.55866 1.79135 2.32751 2.03725 2.07725C2.28097 1.82965 2.50938 1.66962 2.84192 1.54427C3.08826 1.44692 3.45493 1.33134 4.13883 1.29667C4.88136 1.26955 5.10014 1.25977 6.97112 1.25977L7 1.28022ZM7 3.46149C6.52803 3.46131 6.06065 3.55562 5.62457 3.73903C5.18849 3.92244 4.79227 4.19136 4.45853 4.53041C4.1248 4.86945 3.8601 5.27199 3.67956 5.71501C3.49903 6.15803 3.40619 6.63285 3.40636 7.11234C3.40619 7.59183 3.49903 8.06665 3.67956 8.50967C3.8601 8.95269 4.1248 9.35522 4.45853 9.69427C4.79227 10.0333 5.18849 10.3022 5.62457 10.4856C6.06065 10.6691 6.52803 10.7634 7 10.7632C7.47197 10.7634 7.93935 10.6691 8.37543 10.4856C8.81151 10.3022 9.20774 10.0333 9.54147 9.69427C9.8752 9.35522 10.1399 8.95269 10.3204 8.50967C10.501 8.06665 10.5938 7.59183 10.5936 7.11234C10.5938 6.63285 10.501 6.15803 10.3204 5.71501C10.1399 5.27199 9.8752 4.86945 9.54147 4.53041C9.20774 4.19136 8.81151 3.92244 8.37543 3.73903C7.93935 3.55562 7.47197 3.46131 7 3.46149ZM7 9.48297C5.71009 9.48297 4.66652 8.42279 4.66652 7.11234C4.66652 5.80189 5.71009 4.74171 7 4.74171C8.28991 4.74171 9.33348 5.80189 9.33348 7.11234C9.33348 8.42279 8.28991 9.48297 7 9.48297ZM11.5786 3.31568C11.5783 3.54224 11.4896 3.75944 11.3318 3.91955C11.174 4.07967 10.9602 4.16961 10.7372 4.16961C10.6269 4.16961 10.5177 4.14754 10.4158 4.10468C10.314 4.06181 10.2214 3.99897 10.1434 3.91976C10.0655 3.84055 10.0036 3.74651 9.9614 3.64302C9.91921 3.53952 9.89749 3.42859 9.89749 3.31657C9.89749 3.20455 9.91921 3.09363 9.9614 2.99013C10.0036 2.88663 10.0655 2.7926 10.1434 2.71338C10.2214 2.63417 10.314 2.57134 10.4158 2.52847C10.5177 2.4856 10.6269 2.46354 10.7372 2.46354C11.1997 2.46354 11.5786 2.84582 11.5786 3.31568Z" fill="#1C2363"/>
</svg>
