<svg width="182" height="170" viewBox="0 0 182 170" fill="none" xmlns="http://www.w3.org/2000/svg">
<g clip-path="url(#clip0)">
<path d="M144.48 120.783C144.48 120.783 166.922 121.945 161.695 129.024C156.468 136.103 142.732 124.872 142.732 124.872L144.48 120.783Z" fill="#FFB8B8"/>
<path d="M103.124 53.3566L107.692 54.5009C107.692 54.5009 110.357 62.511 112.26 69.7582C114.163 77.0054 117.97 98.7471 117.97 98.7471L147.481 119.471L143.962 127.361L104.647 111.835L95.8916 77.3869L103.124 53.3566Z" fill="#575A89"/>
<path opacity="0.2" d="M107.422 67.5746L105.719 103.3L109.272 113.921L98.8652 106.274L107.422 67.5746Z" fill="black"/>
<path d="M113.592 130.978C113.592 130.978 118.541 144.328 119.302 153.483C120.064 162.637 120.825 169.884 120.825 169.884H97.6045L93.0366 163.018V169.884H66.0096C66.0096 169.884 58.3964 145.091 61.4417 142.04C64.487 138.988 93.4172 126.019 93.4172 126.019L113.592 130.978Z" fill="#2F2E41"/>
<path d="M157.838 169.536H23.4736V170H157.838V169.536Z" fill="#3F3D56"/>
<path d="M84.472 38.8621C92.4608 38.8621 98.9371 32.3728 98.9371 24.3677C98.9371 16.3627 92.4608 9.87329 84.472 9.87329C76.4831 9.87329 70.0068 16.3627 70.0068 24.3677C70.0068 32.3728 76.4831 38.8621 84.472 38.8621Z" fill="#FFB8B8"/>
<path d="M73.433 30.4707L72.291 47.2537L86.7561 66.7068L93.9887 48.398C93.9887 48.398 87.5175 44.2023 91.3241 35.4293L73.433 30.4707Z" fill="#FFB8B8"/>
<path d="M115.685 134.22C115.685 137.654 106.168 142.993 106.168 142.993V144.9L102.362 146.808L93.9879 130.026L91.7053 148.332C91.7053 148.332 74.9549 151.004 69.6266 148.332C64.296 145.663 61.6318 146.808 54.0186 144.138C46.4054 141.468 57.0644 105.613 57.0644 105.613L49.4512 50.3052L66.0836 41.9721L66.9601 41.5318L69.2473 41.11L72.7533 40.4612L84.4714 48.398L85.4149 53.3571L85.9954 56.409L89.0388 52.9747L91.3376 45.3994L107.693 54.5018L103.125 91.1178C103.125 91.1178 115.685 130.788 115.685 134.22Z" fill="#575A89"/>
<path d="M59.7285 146.045C59.7285 146.045 77.2389 160.158 68.8643 162.828C60.4898 165.498 55.9219 148.333 55.9219 148.333L59.7285 146.045Z" fill="#FFB8B8"/>
<path d="M53.2577 51.068L49.4511 50.3051C49.4511 50.3051 43.7412 53.3566 43.3605 59.4595C42.9798 65.5624 38.0312 108.283 38.0312 108.283L54.019 151.385L66.9615 146.426L54.3997 105.994L63.9162 70.9025L53.2577 51.068Z" fill="#575A89"/>
<path d="M86.1454 62.7082C86.9117 62.7082 87.533 62.0857 87.533 61.3178C87.533 60.5499 86.9117 59.9274 86.1454 59.9274C85.3791 59.9274 84.7578 60.5499 84.7578 61.3178C84.7578 62.0857 85.3791 62.7082 86.1454 62.7082Z" fill="#2F2E41"/>
<path d="M86.1454 71.7458C86.9117 71.7458 87.533 71.1233 87.533 70.3554C87.533 69.5875 86.9117 68.965 86.1454 68.965C85.3791 68.965 84.7578 69.5875 84.7578 70.3554C84.7578 71.1233 85.3791 71.7458 86.1454 71.7458Z" fill="#2F2E41"/>
<path d="M94.0087 131.301C94.775 131.301 95.3962 130.678 95.3962 129.91C95.3962 129.143 94.775 128.52 94.0087 128.52C93.2423 128.52 92.6211 129.143 92.6211 129.91C92.6211 130.678 93.2423 131.301 94.0087 131.301Z" fill="#2F2E41"/>
<path d="M72.2594 9.51885L69.5855 8.44617C69.5855 8.44617 75.1765 2.27834 82.9553 2.81468L80.7675 0.401166C80.7675 0.401166 86.1154 -1.74415 90.9771 3.88734C93.5328 6.84768 96.4898 10.3274 98.3332 14.2473H101.197L100.002 16.8843L104.185 19.5212L99.8912 19.0476C100.147 20.4916 100.186 21.9658 100.008 23.4215C99.8235 24.8775 99.082 26.205 97.9396 27.1236C97.9396 27.1236 94.6234 20.2455 94.6234 19.1728V21.8545C94.6234 21.8545 91.9494 19.441 91.9494 17.832L90.4909 19.7092H80.7675L82.226 17.2957L76.635 18.1002L78.8228 15.1503L70.1664 27.3313C70.1664 27.3313 65.2099 13.5413 72.2594 9.51885Z" fill="#2F2E41"/>
<path d="M158.277 112.053C171.049 112.053 181.403 101.678 181.403 88.8796C181.403 76.0814 171.049 65.7064 158.277 65.7064C145.504 65.7064 135.15 76.0814 135.15 88.8796C135.15 101.678 145.504 112.053 158.277 112.053Z" fill="#3F3D56"/>
<path opacity="0.1" d="M158.276 108.809C169.261 108.809 178.165 99.8861 178.165 88.8796C178.165 77.8732 169.261 68.9507 158.276 68.9507C147.292 68.9507 138.388 77.8732 138.388 88.8796C138.388 99.8861 147.292 108.809 158.276 108.809Z" fill="black"/>
<path d="M157.323 100.639V97.7389C155.86 97.7103 154.346 97.1932 153.463 96.4752L154.068 94.5511C155.118 95.3391 156.39 95.7716 157.701 95.7859C159.493 95.7859 160.704 94.6085 160.704 92.9715C160.704 91.392 159.72 90.4156 157.853 89.5539C155.279 88.4053 153.69 87.0841 153.69 84.5857C153.69 82.2019 155.178 80.3926 157.5 79.9619V77.0613H159.064V79.847C160.23 79.863 161.368 80.2116 162.344 80.8521L161.713 82.7476C160.777 82.1057 159.668 81.7651 158.534 81.7711C156.591 81.7711 155.86 83.0922 155.86 84.241C155.86 85.7343 156.793 86.481 158.988 87.515C161.587 88.7212 162.899 90.2145 162.899 92.7705C162.899 95.0392 161.511 97.1646 158.912 97.6525V100.639H157.323Z" fill="#5390D9"/>
<path opacity="0.2" d="M57.8174 116.994L67.0668 145.945L59.6663 115.82L57.8174 116.994Z" fill="black"/>
<path d="M10.6594 60.4364H4.78838C4.5325 60.4361 4.28718 60.3341 4.10624 60.1528C3.9253 59.9715 3.82353 59.7257 3.82324 59.4693V51.0127C3.82353 50.7563 3.9253 50.5105 4.10624 50.3292C4.28718 50.1479 4.5325 50.0459 4.78838 50.0456H10.6594C10.9153 50.0459 11.1606 50.1479 11.3415 50.3292C11.5225 50.5105 11.6243 50.7563 11.6245 51.0127V59.4693C11.6243 59.7257 11.5225 59.9715 11.3415 60.1528C11.1606 60.3341 10.9153 60.4361 10.6594 60.4364ZM4.78838 50.5091C4.65513 50.5092 4.52738 50.5623 4.43316 50.6567C4.33894 50.7512 4.28593 50.8792 4.28577 51.0127V59.4693C4.28593 59.6028 4.33894 59.7308 4.43316 59.8253C4.52738 59.9197 4.65513 59.9728 4.78838 59.9729H10.6594C10.7927 59.9728 10.9204 59.9197 11.0146 59.8253C11.1088 59.7308 11.1619 59.6028 11.162 59.4693V51.0127C11.1619 50.8792 11.1088 50.7512 11.0146 50.6567C10.9204 50.5623 10.7927 50.5092 10.6594 50.5091H4.78838Z" fill="#3F3D56"/>
<path d="M21.3836 60.4364H16.0817C15.7504 60.436 15.4328 60.304 15.1985 60.0692C14.9642 59.8345 14.8324 59.5162 14.832 59.1842V42.1058C14.8324 41.7738 14.9642 41.4555 15.1985 41.2207C15.4328 40.986 15.7504 40.8539 16.0817 40.8535H21.3836C21.715 40.8539 22.0326 40.986 22.2669 41.2207C22.5012 41.4555 22.6329 41.7738 22.6333 42.1058V59.1842C22.6329 59.5162 22.5012 59.8345 22.2669 60.0692C22.0326 60.304 21.715 60.436 21.3836 60.4364ZM16.0817 41.317C15.873 41.3172 15.6729 41.4004 15.5254 41.5483C15.3778 41.6961 15.2948 41.8966 15.2946 42.1057V59.1842C15.2948 59.3933 15.3778 59.5938 15.5254 59.7417C15.6729 59.8896 15.873 59.9727 16.0817 59.973H21.3836C21.5923 59.9727 21.7924 59.8896 21.94 59.7417C22.0876 59.5938 22.1706 59.3933 22.1708 59.1842V42.1058C22.1706 41.8966 22.0876 41.6961 21.94 41.5483C21.7924 41.4004 21.5923 41.3172 21.3836 41.317L16.0817 41.317Z" fill="#3F3D56"/>
<path d="M32.1867 60.4364H27.2943C26.9087 60.436 26.539 60.2823 26.2663 60.0091C25.9937 59.7358 25.8403 59.3654 25.8398 58.979V33.8542C25.8403 33.4678 25.9937 33.0974 26.2663 32.8242C26.539 32.551 26.9087 32.3973 27.2943 32.3969H32.1867C32.5723 32.3973 32.942 32.551 33.2147 32.8242C33.4873 33.0974 33.6407 33.4678 33.6412 33.8542V58.979C33.6407 59.3654 33.4873 59.7358 33.2147 60.0091C32.942 60.2823 32.5723 60.436 32.1867 60.4364ZM27.2943 32.8603C27.0313 32.8606 26.7792 32.9654 26.5932 33.1518C26.4073 33.3381 26.3027 33.5907 26.3024 33.8542V58.979C26.3027 59.2425 26.4073 59.4952 26.5932 59.6815C26.7792 59.8678 27.0313 59.9726 27.2943 59.9729H32.1867C32.4497 59.9726 32.7018 59.8678 32.8878 59.6815C33.0737 59.4952 33.1783 59.2425 33.1786 58.979V33.8542C33.1783 33.5907 33.0737 33.3381 32.8878 33.1518C32.7018 32.9654 32.4497 32.8606 32.1867 32.8603H27.2943Z" fill="#3F3D56"/>
<path d="M9.92572 51.6561H5.52246V58.8259H9.92572V51.6561Z" fill="#5390D9"/>
<path d="M20.9335 42.556H16.5303V58.8259H20.9335V42.556Z" fill="#5390D9"/>
<path d="M31.9423 34.0994H27.5391V58.8259H31.9423V34.0994Z" fill="#5390D9"/>
<path d="M167.203 33.7873H136.445C136.415 33.7873 136.385 33.7813 136.357 33.7697C136.329 33.758 136.303 33.741 136.282 33.7194C136.26 33.6979 136.243 33.6724 136.231 33.6443C136.22 33.6161 136.214 33.586 136.214 33.5556V2.27177C136.214 2.21031 136.238 2.15137 136.282 2.10791C136.325 2.06445 136.384 2.04004 136.445 2.04004C136.506 2.04004 136.565 2.06445 136.609 2.10791C136.652 2.15137 136.676 2.21031 136.676 2.27177V33.3238H167.203C167.264 33.3238 167.323 33.3482 167.367 33.3917C167.41 33.4352 167.434 33.4941 167.434 33.5556C167.434 33.617 167.41 33.676 167.367 33.7194C167.323 33.7629 167.264 33.7873 167.203 33.7873Z" fill="#3F3D56"/>
<path d="M36.7709 63.6807H0.231263C0.200891 63.6807 0.170816 63.6747 0.142754 63.6631C0.114692 63.6514 0.089194 63.6344 0.0677177 63.6128C0.0462413 63.5913 0.0292068 63.5658 0.0175875 63.5376C0.00596827 63.5095 -7.89202e-06 63.4794 7.82181e-09 63.449V27.0671C7.82181e-09 27.0056 0.024365 26.9467 0.0677353 26.9032C0.111106 26.8597 0.169929 26.8353 0.231263 26.8353C0.292598 26.8353 0.351421 26.8597 0.394791 26.9032C0.438162 26.9467 0.462527 27.0056 0.462527 27.0671V63.2172H36.7709C36.8322 63.2172 36.891 63.2416 36.9344 63.2851C36.9778 63.3286 37.0021 63.3875 37.0021 63.449C37.0021 63.5104 36.9778 63.5694 36.9344 63.6128C36.891 63.6563 36.8322 63.6807 36.7709 63.6807Z" fill="#3F3D56"/>
<path d="M147.06 30.883H141.189C140.933 30.8827 140.688 30.7808 140.507 30.5995C140.326 30.4182 140.224 30.1723 140.224 29.9159V21.4593C140.224 21.2029 140.326 20.957 140.507 20.7757C140.688 20.5944 140.933 20.4924 141.189 20.4922H147.06C147.316 20.4925 147.561 20.5945 147.742 20.7758C147.923 20.9571 148.025 21.2029 148.025 21.4593V29.9159C148.025 30.1723 147.923 30.4181 147.742 30.5994C147.561 30.7807 147.316 30.8827 147.06 30.883ZM141.189 20.9557C141.056 20.9558 140.928 21.0089 140.834 21.1033C140.739 21.1977 140.686 21.3257 140.686 21.4593V29.9159C140.686 30.0495 140.739 30.1775 140.834 30.2719C140.928 30.3663 141.056 30.4194 141.189 30.4196H147.06C147.193 30.4194 147.321 30.3663 147.415 30.2719C147.509 30.1774 147.562 30.0494 147.562 29.9159V21.4593C147.562 21.3258 147.509 21.1978 147.415 21.1034C147.321 21.0089 147.193 20.9558 147.06 20.9557H141.189Z" fill="#3F3D56"/>
<path d="M159.083 30.883H153.679C153.361 30.8826 153.057 30.7559 152.832 30.5307C152.607 30.3055 152.481 30.0002 152.48 29.6817V14.3643C152.481 14.0458 152.607 13.7405 152.832 13.5153C153.057 13.2901 153.361 13.1634 153.679 13.1631H159.083C159.401 13.1634 159.706 13.2901 159.93 13.5153C160.155 13.7405 160.281 14.0458 160.282 14.3643V29.6817C160.281 30.0002 160.155 30.3055 159.93 30.5307C159.706 30.7559 159.401 30.8826 159.083 30.883ZM153.679 13.6265C153.484 13.6268 153.297 13.7045 153.159 13.8429C153.021 13.9812 152.943 14.1687 152.943 14.3643V29.6817C152.943 29.8773 153.021 30.0648 153.159 30.2032C153.297 30.3415 153.484 30.4193 153.679 30.4195H159.083C159.278 30.4193 159.465 30.3415 159.603 30.2032C159.741 30.0648 159.819 29.8773 159.819 29.6817V14.3643C159.819 14.1687 159.741 13.9812 159.603 13.8429C159.465 13.7046 159.278 13.6268 159.083 13.6265H153.679Z" fill="#3F3D56"/>
<path d="M146.22 22.183H141.816V29.3528H146.22V22.183Z" fill="#5390D9"/>
<path d="M158.583 15.0869H154.18V28.9592H158.583V15.0869Z" fill="#5390D9"/>
<path d="M144.077 18.0294C145.227 18.0294 146.159 17.0957 146.159 15.9439C146.159 14.792 145.227 13.8583 144.077 13.8583C142.928 13.8583 141.996 14.792 141.996 15.9439C141.996 17.0957 142.928 18.0294 144.077 18.0294Z" fill="#5390D9"/>
<path d="M156.334 10.1507C157.484 10.1507 158.416 9.21691 158.416 8.06508C158.416 6.91324 157.484 5.97949 156.334 5.97949C155.185 5.97949 154.253 6.91324 154.253 8.06508C154.253 9.21691 155.185 10.1507 156.334 10.1507Z" fill="#5390D9"/>
</g>
<defs>
<clipPath id="clip0">
<rect width="181.402" height="170" fill="white"/>
</clipPath>
</defs>
</svg>
