<svg width="15" height="15" viewBox="0 0 15 15" fill="none" xmlns="http://www.w3.org/2000/svg">
<path d="M11.0807 7.79638V10.386H9.49758V7.9694C9.49758 7.3628 9.26858 6.94883 8.69532 6.94883C8.25799 6.94883 7.99722 7.22761 7.88271 7.49799C7.84134 7.59465 7.83026 7.72914 7.83026 7.86363V10.386H6.24642C6.24642 10.386 6.26784 6.29389 6.24642 5.87012H7.83026V6.50964L7.81992 6.52435H7.83026V6.51034C8.0408 6.20213 8.41608 5.76365 9.2575 5.76365C10.2991 5.76365 11.0807 6.40947 11.0807 7.79638ZM4.58944 3.69238C4.04795 3.69238 3.69336 4.03001 3.69336 4.4727C3.69336 4.90698 4.03761 5.25371 4.56876 5.25371H4.5791C5.13167 5.25371 5.47518 4.90628 5.47518 4.4727C5.46484 4.03001 5.13167 3.69238 4.58944 3.69238ZM3.78718 10.386H5.37102V5.87012H3.78718V10.386Z" fill="#1C2363"/>
<path d="M2.95491 1.4009C2.56306 1.4009 2.18727 1.5485 1.91019 1.81122C1.63311 2.07394 1.47745 2.43026 1.47745 2.80181V11.2072C1.47745 11.5788 1.63311 11.9351 1.91019 12.1978C2.18727 12.4605 2.56306 12.6081 2.95491 12.6081H11.8196C12.2115 12.6081 12.5873 12.4605 12.8643 12.1978C13.1414 11.9351 13.2971 11.5788 13.2971 11.2072V2.80181C13.2971 2.43026 13.1414 2.07394 12.8643 1.81122C12.5873 1.5485 12.2115 1.4009 11.8196 1.4009H2.95491ZM2.95491 0H11.8196C12.6033 0 13.3549 0.29519 13.9091 0.82063C14.4632 1.34607 14.7745 2.05872 14.7745 2.80181V11.2072C14.7745 11.9503 14.4632 12.663 13.9091 13.1884C13.3549 13.7138 12.6033 14.009 11.8196 14.009H2.95491C2.17122 14.009 1.41962 13.7138 0.865472 13.1884C0.31132 12.663 0 11.9503 0 11.2072V2.80181C0 2.05872 0.31132 1.34607 0.865472 0.82063C1.41962 0.29519 2.17122 0 2.95491 0Z" fill="#1C2363"/>
</svg>
