<svg width="217" height="167" viewBox="0 0 217 167" fill="none" xmlns="http://www.w3.org/2000/svg">
<g clip-path="url(#clip0)">
<path d="M2.32264 67.8195C8.29623 29.103 28.9369 1.15508 53.1645 0.0341166C65.973 -0.558504 79.451 6.44323 89.264 30.9448C106.806 74.7441 88.186 105.011 75.2048 119.393C68.9278 126.347 63.2893 134.732 58.4155 144.265C49.6471 161.415 32.7787 182.727 12.6892 149.335C-1.87168 125.132 -1.65637 93.6086 2.32264 67.8195Z" fill="#F2F2F2"/>
<path d="M217.001 102.139H42.3994V165.507H217.001V102.139Z" fill="#3F3D56"/>
<path opacity="0.1" d="M89.4994 102.139L42.3994 134.418V115.724L62.2226 102.139H89.4994Z" fill="black"/>
<path opacity="0.1" d="M136.046 102.139L91.9914 132.332L90.414 133.414L43.5845 165.507H42.3994V147.624L72.575 126.946L73.5846 126.253L108.771 102.139H136.046Z" fill="black"/>
<path d="M47.5315 134.023L47.0615 133.435C47.1082 133.398 51.8179 129.69 59.3404 127.569C63.6981 126.329 68.2394 125.86 72.759 126.183C78.3643 126.59 83.9377 128.242 89.3243 131.092L88.9715 131.757C76.9877 125.415 66.3548 126.373 59.5451 128.293C52.1673 130.373 47.577 133.987 47.5315 134.023Z" fill="#F2F2F2"/>
<path d="M93.0653 133.729C90.8166 133.341 87.8408 133.179 85.6973 133.592L88.618 131.149L89.2973 127.407C89.9992 129.471 91.6139 131.971 93.0653 133.729Z" fill="#F2F2F2"/>
<path d="M124.605 141.376C121.006 141.371 117.424 140.871 113.961 139.889C106.439 137.768 101.729 134.06 101.683 134.023L102.152 133.435C102.198 133.471 106.811 137.098 114.197 139.174C121 141.086 131.622 142.036 143.592 135.701L143.945 136.366C138.559 139.216 132.985 140.868 127.38 141.275C126.456 141.342 125.531 141.376 124.605 141.376Z" fill="#F2F2F2"/>
<path d="M147.687 133.729C146.236 135.487 144.621 137.988 143.919 140.052L143.24 136.309L140.319 133.867C142.463 134.28 145.439 134.117 147.687 133.729Z" fill="#F2F2F2"/>
<path d="M158.846 134.023L158.376 133.435C158.423 133.398 163.132 129.69 170.655 127.569C175.013 126.329 179.554 125.86 184.074 126.183C189.679 126.59 195.252 128.242 200.639 131.092L200.286 131.757C188.303 125.415 177.669 126.373 170.86 128.293C163.482 130.373 158.892 133.987 158.846 134.023Z" fill="#F2F2F2"/>
<path d="M204.38 133.729C202.131 133.341 199.155 133.179 197.012 133.592L199.932 131.149L200.612 127.407C201.314 129.471 202.928 131.971 204.38 133.729Z" fill="#F2F2F2"/>
<path d="M157.293 119.438H145.05V119.814H157.293V119.438Z" fill="#5390D9"/>
<path d="M157.293 123.199H145.05V123.575H157.293V123.199Z" fill="#5390D9"/>
<path d="M157.293 126.96H145.05V127.336H157.293V126.96Z" fill="#5390D9"/>
<path d="M102.295 141.626H90.0518V142.002H102.295V141.626Z" fill="#5390D9"/>
<path d="M102.295 145.387H90.0518V145.763H102.295V145.387Z" fill="#5390D9"/>
<path d="M102.295 149.148H90.0518V149.524H102.295V149.148Z" fill="#5390D9"/>
<path d="M213.986 141.626H201.743V142.002H213.986V141.626Z" fill="#5390D9"/>
<path d="M213.986 145.387H201.743V145.763H213.986V145.387Z" fill="#5390D9"/>
<path d="M213.986 149.148H201.743V149.524H213.986V149.148Z" fill="#5390D9"/>
<path d="M96.4554 138.43C97.8077 138.43 98.904 137.335 98.904 135.985C98.904 134.635 97.8077 133.541 96.4554 133.541C95.1031 133.541 94.0068 134.635 94.0068 135.985C94.0068 137.335 95.1031 138.43 96.4554 138.43Z" fill="#5390D9"/>
<path d="M151.266 135.045C152.618 135.045 153.715 133.951 153.715 132.601C153.715 131.251 152.618 130.156 151.266 130.156C149.914 130.156 148.817 131.251 148.817 132.601C148.817 133.951 149.914 135.045 151.266 135.045Z" fill="#5390D9"/>
<path d="M207.771 138.43C209.123 138.43 210.219 137.335 210.219 135.985C210.219 134.635 209.123 133.541 207.771 133.541C206.419 133.541 205.322 134.635 205.322 135.985C205.322 137.335 206.419 138.43 207.771 138.43Z" fill="#5390D9"/>
<path d="M71.8687 85.1226L68.2217 81.219L72.1318 77.5781L75.7788 81.4816L71.8687 85.1226ZM68.803 81.2392L71.889 84.5422L75.1975 81.4614L72.1115 78.1584L68.803 81.2392Z" fill="#3F3D56"/>
<path d="M159.619 39.3631L155.972 35.4596L159.882 31.8186L163.529 35.7222L159.619 39.3631ZM156.553 35.4798L159.639 38.7827L162.948 35.702L159.862 32.399L156.553 35.4798Z" fill="#3F3D56"/>
<path d="M204.405 102.455H199.058V97.1172H204.405V102.455ZM199.469 102.045H203.993V97.5278H199.469L199.469 102.045Z" fill="#3F3D56"/>
<path d="M125.214 123.482C126.722 123.482 127.944 122.261 127.944 120.756C127.944 119.251 126.722 118.031 125.214 118.031C123.707 118.031 122.484 119.251 122.484 120.756C122.484 122.261 123.707 123.482 125.214 123.482Z" fill="#5390D9"/>
<path d="M125.213 128.629C123.654 128.629 122.129 128.168 120.832 127.302C119.535 126.437 118.524 125.208 117.927 123.769C117.331 122.331 117.174 120.748 117.479 119.22C117.783 117.693 118.534 116.29 119.637 115.189C120.74 114.088 122.145 113.338 123.675 113.035C125.205 112.731 126.79 112.887 128.231 113.483C129.672 114.079 130.904 115.088 131.77 116.382C132.637 117.677 133.099 119.199 133.099 120.756C133.097 122.844 132.265 124.845 130.787 126.321C129.309 127.797 127.304 128.627 125.213 128.629ZM125.213 113.489C123.774 113.489 122.366 113.915 121.169 114.714C119.972 115.512 119.039 116.647 118.488 117.975C117.937 119.303 117.793 120.764 118.074 122.174C118.355 123.584 119.048 124.879 120.066 125.895C121.084 126.911 122.381 127.604 123.793 127.884C125.205 128.164 126.669 128.021 127.999 127.47C129.329 126.92 130.466 125.989 131.266 124.794C132.066 123.599 132.493 122.194 132.493 120.756C132.491 118.83 131.723 116.982 130.358 115.62C128.994 114.258 127.143 113.491 125.213 113.489Z" fill="#F2F2F2"/>
<path d="M132.6 55.1185H109.856V81.5711H132.6V55.1185Z" fill="#F2F2F2"/>
<path d="M124.867 121.106L124.551 120.798C126.005 119.153 127.106 117.229 127.789 115.144C128.863 111.916 129.388 106.818 125.787 100.863C122.102 94.7704 121.936 89.8216 122.446 86.743C123 83.3932 124.415 81.5154 124.475 81.4372L124.826 81.7049C124.812 81.7233 123.409 83.591 122.877 86.8409C122.386 89.8414 122.557 94.6703 126.165 100.635C129.858 106.743 129.311 111.982 128.202 115.302C127 118.899 124.954 121.018 124.867 121.106Z" fill="#3F3D56"/>
<path d="M141.432 81.7915H109.636V50.0485H141.432V81.7915ZM110.077 81.3507H140.991V50.4893H110.077V81.3507Z" fill="#3F3D56"/>
<path d="M135.691 59.3068H116.26V59.7477H135.691V59.3068Z" fill="#3F3D56"/>
<path d="M135.691 64.1565H116.26V64.5974H135.691V64.1565Z" fill="#3F3D56"/>
<path d="M135.691 69.0061H116.26V69.447H135.691V69.0061Z" fill="#3F3D56"/>
<path d="M32.0184 146.115L31.2197 153.823L35.7462 153.292L36.2787 146.912L32.0184 146.115Z" fill="#FFB9B9"/>
<path d="M20.0362 87.6338C20.0362 87.6338 -3.12907 109.963 11.5157 116.874H16.0422C16.0422 116.874 25.8941 100.659 30.687 100.925L32.0183 116.343L31.2195 147.444L37.0774 147.71C37.0774 147.71 40.5389 132.026 40.2726 123.254L46.3968 90.8236L20.0362 87.6338Z" fill="#2F2E41"/>
<path d="M12.8467 115.811L16.0419 116.874C16.0419 116.874 28.5565 113.95 29.3553 114.216L31.8329 114.199L31.7517 107.836H21.101L12.8467 115.811Z" fill="#2F2E41"/>
<path d="M36.2791 152.228C36.2791 152.228 31.4862 150.102 30.6874 152.228C29.8886 154.355 30.1549 160.469 30.1549 160.469C30.1549 160.469 31.22 162.33 30.6874 164.456C30.1549 166.583 32.8176 167.646 36.2791 166.583C39.7405 165.52 39.7406 162.861 39.7406 162.861L36.2791 152.228Z" fill="#2F2E41"/>
<path d="M40.273 107.305C40.273 107.305 44.0007 105.178 43.7345 108.368C43.4682 111.558 42.1369 114.482 42.1369 114.482C42.1369 114.482 45.5983 123.52 42.1369 124.317C38.6754 125.115 36.0127 123.254 36.0127 121.925C36.0127 120.596 40.273 107.305 40.273 107.305Z" fill="#2F2E41"/>
<path d="M28.5576 34.4693L29.0903 44.5706L33.6168 48.5579L38.6759 41.3809V34.2036L28.5576 34.4693Z" fill="#FFB9B9"/>
<path d="M32.019 44.5706L28.9708 42.3094L26.9599 45.3681L17.9068 50.6845L23.2321 64.5073L23.4984 78.0642C23.4984 78.0642 13.6465 88.1654 19.5044 89.4945C25.3623 90.8236 46.1312 93.7477 47.1962 91.3553C48.2613 88.9629 45.8649 64.2414 45.8649 64.2414L46.6637 43.2415L38.6757 40.3583L32.019 44.5706Z" fill="#D0CDE1"/>
<path d="M15.7764 61.4064C15.7764 61.4064 13.6463 76.4693 17.6403 76.4693C20.0124 76.4774 22.3634 76.026 24.5633 75.1402L21.3681 66.8997L22.6994 61.3174L15.7764 61.4064Z" fill="#FFB9B9"/>
<path d="M21.9 74.6085L24.8289 75.1401C24.8289 75.1401 33.3495 69.8237 33.882 69.5579C34.4146 69.2921 25.3615 64.7731 25.3615 64.7731L19.2373 67.1655L21.9 74.6085Z" fill="#FFB9B9"/>
<path opacity="0.1" d="M25.3621 64.7731L21.517 66.2751L22.6994 61.3174L15.7764 61.4063C15.7764 61.4063 13.6463 76.4692 17.6403 76.4692C20.0124 76.4773 22.3634 76.0259 24.5633 75.1401L24.5431 75.0881L24.8295 75.1401C24.8295 75.1401 33.3501 69.8237 33.8827 69.5579C34.4152 69.2921 25.3621 64.7731 25.3621 64.7731Z" fill="black"/>
<path d="M34.7165 39.5095C38.9157 39.5095 42.3198 36.1111 42.3198 31.919C42.3198 27.7269 38.9157 24.3285 34.7165 24.3285C30.5174 24.3285 27.1133 27.7269 27.1133 31.919C27.1133 36.1111 30.5174 39.5095 34.7165 39.5095Z" fill="#FFB9B9"/>
<path d="M27.9945 23.3559L26.5089 22.7622C26.5089 22.7622 29.6151 19.3482 33.9367 19.6451L32.7212 18.3092C32.7212 18.3092 35.6923 17.1218 38.3933 20.2388C39.8132 21.8774 41.456 23.8035 42.4801 25.9732H44.071L43.407 27.4328L45.731 28.8924L43.3457 28.6302C43.5716 29.8903 43.4943 31.1859 43.12 32.4103L43.184 33.564C43.184 33.564 40.419 29.2932 40.419 28.6995V30.1838C40.419 30.1838 38.9335 28.8479 38.9335 27.9573L38.1232 28.9964L37.7181 27.3636L32.7212 28.9964L33.5315 27.6605L30.4254 28.1058L31.6409 26.473C31.6409 26.473 28.1296 28.4026 27.9945 30.0354C27.8595 31.6682 26.1038 33.7462 26.1038 33.7462L25.2935 32.2619C25.2935 32.2619 24.078 25.5824 27.9945 23.3559Z" fill="#2F2E41"/>
<path d="M41.3383 56.7984C41.3383 56.7984 39.2081 59.1908 39.2081 62.6465L25.0959 62.1149C25.0959 62.1149 21.3682 61.5832 21.3682 64.2415V66.8997C21.3682 66.8997 23.232 66.1022 24.2971 66.8997C25.3622 67.6971 36.8117 74.6085 42.4033 71.9503C47.995 69.2921 49.3263 58.925 49.3263 58.925C49.3263 58.925 44.2672 54.6719 41.3383 56.7984Z" fill="#FFB9B9"/>
<path d="M44.5334 43.5073L46.6635 43.2415C46.6635 43.2415 50.9238 43.7731 50.3913 52.0136C49.8587 60.2541 49.5925 60.7857 49.5925 60.7857C49.5925 60.7857 44.0009 55.7351 40.0068 58.1275L44.5334 43.5073Z" fill="#D0CDE1"/>
<path d="M18.9719 50.6845H17.9068C16.5269 52.4246 15.7763 54.579 15.7767 56.7984C15.7522 59.1755 15.4393 61.5408 14.8447 63.8427L23.2322 62.3807L18.9719 50.6845Z" fill="#D0CDE1"/>
<path d="M151.446 84.339H151.033V95.0429H151.446V84.339Z" fill="#3F3D56"/>
<path d="M151.239 81.851C151.674 83.0217 152.416 84.4743 153.203 85.3746L151.239 84.6655L149.275 85.3746C150.062 84.4743 150.804 83.0217 151.239 81.851Z" fill="#3F3D56"/>
<path d="M101.893 75.0634H101.48V85.7673H101.893V75.0634Z" fill="#3F3D56"/>
<path d="M101.686 72.5754C102.121 73.7461 102.864 75.1986 103.65 76.099L101.686 75.3899L99.7227 76.099C100.509 75.1986 101.251 73.7461 101.686 72.5754Z" fill="#3F3D56"/>
<path d="M170.441 66.8184H170.028V77.5224H170.441V66.8184Z" fill="#3F3D56"/>
<path d="M170.235 64.3304C170.67 65.5011 171.412 66.9537 172.199 67.8541L170.235 67.1449L168.271 67.8541C169.058 66.9537 169.8 65.5011 170.235 64.3304Z" fill="#3F3D56"/>
</g>
<defs>
<clipPath id="clip0">
<rect width="217" height="167" fill="white"/>
</clipPath>
</defs>
</svg>
