<svg width="217" height="143" viewBox="0 0 217 143" fill="none" xmlns="http://www.w3.org/2000/svg">
<g clip-path="url(#clip0)">
<path d="M187.302 142.083C203.704 142.083 217 140.759 217 139.126C217 137.493 203.704 136.169 187.302 136.169C170.901 136.169 157.604 137.493 157.604 139.126C157.604 140.759 170.901 142.083 187.302 142.083Z" fill="#E6E6E6"/>
<path d="M18.3928 139.241C24.2669 139.241 29.0288 138.579 29.0288 137.762C29.0288 136.946 24.2669 136.284 18.3928 136.284C12.5187 136.284 7.75684 136.946 7.75684 137.762C7.75684 138.579 12.5187 139.241 18.3928 139.241Z" fill="#E6E6E6"/>
<path d="M139.214 0H0V70.1753H139.214V0Z" fill="#E6E6E6"/>
<path d="M132.821 5.70911H6.39258V64.4661H132.821V5.70911Z" fill="white"/>
<path d="M6.55942 64.6342L6.22461 64.2978L23.2019 47.2401L28.5291 52.5924L37.8808 43.196L49.3636 54.7333L68.8962 35.1079L77.7746 44.0287L97.1887 24.5222L108.08 35.4648L128.036 15.4131L128.371 15.7495L108.08 36.1376L97.1887 25.195L77.7746 44.7013L68.8962 35.7807L49.3636 55.4061L37.8808 43.8688L28.5291 53.2652L23.2019 47.9127L6.55942 64.6342Z" fill="#5390D9"/>
<path d="M97.3069 28.0701C98.876 28.0701 100.148 26.7921 100.148 25.2156C100.148 23.639 98.876 22.361 97.3069 22.361C95.7378 22.361 94.4658 23.639 94.4658 25.2156C94.4658 26.7921 95.7378 28.0701 97.3069 28.0701Z" fill="#5390D9"/>
<path d="M38.1184 46.6249C39.6875 46.6249 40.9595 45.3469 40.9595 43.7704C40.9595 42.1938 39.6875 40.9158 38.1184 40.9158C36.5493 40.9158 35.2773 42.1938 35.2773 43.7704C35.2773 45.3469 36.5493 46.6249 38.1184 46.6249Z" fill="#5390D9"/>
<path d="M77.8938 46.8628C79.4629 46.8628 80.7349 45.5848 80.7349 44.0083C80.7349 42.4317 79.4629 41.1537 77.8938 41.1537C76.3247 41.1537 75.0527 42.4317 75.0527 44.0083C75.0527 45.5848 76.3247 46.8628 77.8938 46.8628Z" fill="#5390D9"/>
<path d="M50.1927 57.5675C51.7617 57.5675 53.0337 56.2895 53.0337 54.7129C53.0337 53.1364 51.7617 51.8583 50.1927 51.8583C48.6236 51.8583 47.3516 53.1364 47.3516 54.7129C47.3516 56.2895 48.6236 57.5675 50.1927 57.5675Z" fill="#5390D9"/>
<path d="M68.4231 38.7748C69.9922 38.7748 71.2642 37.4968 71.2642 35.9203C71.2642 34.3437 69.9922 33.0657 68.4231 33.0657C66.854 33.0657 65.582 34.3437 65.582 35.9203C65.582 37.4968 66.854 38.7748 68.4231 38.7748Z" fill="#5390D9"/>
<path d="M107.962 38.7748C109.531 38.7748 110.803 37.4968 110.803 35.9203C110.803 34.3437 109.531 33.0657 107.962 33.0657C106.393 33.0657 105.121 34.3437 105.121 35.9203C105.121 37.4968 106.393 38.7748 107.962 38.7748Z" fill="#5390D9"/>
<path d="M15.0522 130.494C16.205 134.776 20.1536 137.428 20.1536 137.428C20.1536 137.428 22.2332 133.137 21.0804 128.856C19.9276 124.574 15.979 121.922 15.979 121.922C15.979 121.922 13.8994 126.212 15.0522 130.494Z" fill="#E6E6E6"/>
<path d="M16.7455 129.574C19.9088 132.668 20.2952 137.424 20.2952 137.424C20.2952 137.424 15.5528 137.164 12.3895 134.07C9.22622 130.976 8.83984 126.22 8.83984 126.22C8.83984 126.22 13.5822 126.48 16.7455 129.574Z" fill="#5390D9"/>
<path d="M177.333 33.0719L179.145 51.0751H194.057L193.34 23.7103C193.34 17.8202 189.287 12.6683 183.425 12.6683C177.563 12.6683 173.75 17.5802 173.75 23.4702L172.794 51.0751H175.225L177.333 33.0719Z" fill="#2F2E41"/>
<path d="M186.246 127.481C186.246 127.481 185.603 131.576 184.53 132.223C183.457 132.87 190.108 134.378 190.108 134.378L191.181 127.912L186.246 127.481Z" fill="#FBBEBE"/>
<path d="M194.184 80.705L196.544 83.5072L195.471 93.2073L194.613 112.392C194.613 112.392 196.33 128.99 194.613 129.421C192.897 129.852 185.174 129.636 185.388 128.558C185.603 127.481 185.817 126.618 186.246 125.11C186.675 123.601 185.817 118.212 185.817 118.212L186.89 112.176L183.028 86.0939L194.184 80.705Z" fill="#2F2E41"/>
<path d="M186.461 131.576C186.461 131.576 184.101 131.145 183.886 131.576C183.672 132.007 179.595 136.534 178.952 136.534C178.308 136.534 173.588 140.845 178.523 141.061C183.457 141.276 191.61 137.396 191.61 137.396C191.61 137.396 190.41 131.911 190.473 132.175C190.537 132.439 186.461 132.654 186.461 131.576Z" fill="#2F2E41"/>
<path d="M183.886 121.661C183.886 121.661 189.893 128.343 190.107 128.99C190.322 129.636 193.54 128.99 193.54 128.99L194.827 124.678L193.754 123.17L187.747 118.212L183.886 121.661Z" fill="#FBBEBE"/>
<path d="M192.467 126.618L189.356 129.56C189.356 129.56 193.325 135.672 193.325 136.318C193.325 136.965 193.54 142.354 195.685 141.492C197.831 140.63 198.045 132.007 198.045 132.007C198.045 132.007 197.831 123.17 196.543 122.523C195.256 121.876 192.435 122.081 192.435 122.081C192.435 122.081 194.184 126.403 192.467 126.618Z" fill="#2F2E41"/>
<path d="M174.662 61.5205C174.662 61.5205 173.589 64.9694 173.375 65.8317C173.16 66.6939 171.873 69.065 171.873 72.7294C171.873 76.3939 172.302 80.705 171.873 81.1361C171.444 81.5672 164.578 105.71 167.582 108.296C170.586 110.883 180.454 119.505 181.098 120.583C181.741 121.661 181.956 124.247 183.243 123.816C184.53 123.385 189.465 119.074 189.679 118.212C189.894 117.35 186.89 115.841 186.89 115.841C186.89 115.841 180.883 107.003 179.382 107.218C177.88 107.434 178.094 106.141 178.309 105.494C178.523 104.847 178.952 104.416 178.309 104.416C177.665 104.416 178.094 102.692 178.309 101.83C178.523 100.967 183.458 89.3273 183.458 89.3273L196.545 83.5072C196.545 83.5072 195.901 67.7717 191.181 63.4605L190.108 60.8739C190.108 60.8739 178.094 60.0116 174.662 61.5205Z" fill="#2F2E41"/>
<path d="M180.024 27.4628C180.024 27.4628 181.097 35.0072 178.523 35.4383C175.948 35.8695 173.803 35.6539 173.803 35.8695C173.803 36.085 180.239 42.7672 180.239 42.7672L186.246 42.3361L191.609 36.5161C191.609 36.5161 186.675 35.6539 186.675 32.6361C186.675 29.6183 186.46 27.4628 186.46 27.4628L180.024 27.4628Z" fill="#FFB8B8"/>
<path d="M183.35 30.5882C187.023 30.5882 190.001 27.5965 190.001 23.906C190.001 20.2155 187.023 17.2238 183.35 17.2238C179.677 17.2238 176.699 20.2155 176.699 23.906C176.699 27.5965 179.677 30.5882 183.35 30.5882Z" fill="#FFB8B8"/>
<path d="M179.468 34.8895C179.468 34.8895 169.082 35.8693 168.439 38.6716C167.795 41.4738 172.729 58.9339 173.373 60.4427C174.017 61.9516 173.802 63.0294 173.802 63.0294C174.773 62.3 175.888 61.7879 177.072 61.5276C178.256 61.2674 179.482 61.2649 180.667 61.5205C184.743 62.3828 190.536 61.9516 190.536 61.9516C190.536 61.9516 192.467 53.9761 192.896 53.1138C193.325 52.2516 195.041 47.5094 195.041 46.216C195.041 44.9227 197.616 39.5338 197.616 39.5338C197.616 39.5338 196.328 35.6538 191.609 35.8694C191.609 35.8694 189.55 34.9435 188.97 35.622C188.391 36.3005 185.172 39.3183 181.096 38.0249C177.02 36.7316 179.468 34.8895 179.468 34.8895Z" fill="#E6E6E6"/>
<path d="M193.539 38.4561L197.615 39.5338C197.615 39.5338 200.619 50.5272 200.833 50.7427C201.048 50.9583 201.262 52.2516 201.262 52.2516C201.262 52.2516 201.262 52.4672 201.691 53.1139C202.121 53.7605 202.764 53.3294 202.335 54.1916C201.906 55.0539 201.262 54.6228 201.691 55.485C202.121 56.3472 201.906 58.7183 201.906 58.7183C201.906 58.7183 200.833 54.6228 196.972 55.7005L194.397 44.0605L193.539 38.4561Z" fill="#E6E6E6"/>
<path d="M194.887 40.5194L194.872 40.5686L187.806 62.9359L183.167 61.9009L178.151 60.7823L185.233 37.7173L194.887 40.5194Z" fill="#5390D9"/>
<path d="M172.59 38.4561L168.514 39.5338C168.514 39.5338 165.51 50.5272 165.296 50.7427C165.081 50.9583 164.867 52.2516 164.867 52.2516C164.867 52.2516 164.867 52.4672 164.437 53.1139C164.008 53.7605 163.365 53.3294 163.794 54.1916C164.223 55.0539 164.867 54.6228 164.437 55.485C164.008 56.3472 164.223 58.7183 164.223 58.7183C164.223 58.7183 165.296 54.6228 169.157 55.7005L171.732 44.0605L172.59 38.4561Z" fill="#E6E6E6"/>
<path d="M165.509 55.0539L164.169 57.3044C164.169 57.3044 163.579 61.5206 166.582 61.5206C169.586 61.5206 173.876 57.425 173.876 57.425C173.876 57.425 176.022 56.5628 177.309 56.7783C178.596 56.9939 185.676 56.7783 182.672 53.1139C179.669 49.4494 174.52 53.1139 174.52 53.1139L169.157 55.7006L166.368 54.1917L165.509 55.0539Z" fill="#FFB8B8"/>
<path d="M167.334 52.1439L169.479 55.5928C169.479 55.5928 164.545 56.2394 164.116 57.3172C163.687 58.395 166.046 51.7128 166.046 51.7128L167.334 52.1439Z" fill="#E6E6E6"/>
<path d="M177.811 21.5499C182.131 19.2095 183.906 19.3086 189.279 21.5499L190.712 18.0409C190.711 17.3802 190.45 16.7468 189.985 16.2796C189.52 15.8124 188.889 15.5496 188.232 15.5488H178.619C177.961 15.5496 177.331 15.8124 176.866 16.2796C176.401 16.7468 176.139 17.3802 176.139 18.0409L177.811 21.5499Z" fill="#2F2E41"/>
<path opacity="0.2" d="M194.872 40.5687L187.805 62.936L183.167 61.9009L190.138 39.196L194.872 40.5687Z" fill="black"/>
<path d="M191.609 39.1955L184.529 62.26L194.184 64.4154L201.263 41.9976L191.609 39.1955Z" fill="#5390D9"/>
<path d="M200.62 55.0539L201.961 57.3044C201.961 57.3044 202.551 61.5206 199.548 61.5206C196.544 61.5206 192.253 57.425 192.253 57.425C192.253 57.425 190.108 56.5628 188.821 56.7783C187.534 56.9939 180.454 56.7783 183.457 53.1139C186.461 49.4494 191.61 53.1139 191.61 53.1139L196.973 55.7006L199.762 54.1917L200.62 55.0539Z" fill="#FFB8B8"/>
<path d="M198.796 52.1439L196.65 55.5928C196.65 55.5928 201.585 56.2394 202.014 57.3172C202.443 58.395 200.083 51.7128 200.083 51.7128L198.796 52.1439Z" fill="#E6E6E6"/>
</g>
<defs>
<clipPath id="clip0">
<rect width="217" height="142.083" fill="white"/>
</clipPath>
</defs>
</svg>
