<svg width="666" height="549" viewBox="0 0 666 549" fill="none" xmlns="http://www.w3.org/2000/svg">
<g clip-path="url(#clip0)">
<path d="M125.581 425.116C125.581 425.116 373.389 218.333 516.111 425.116H125.581Z" fill="#F2F2F2"/>
<path d="M532.221 549C595.609 549 646.995 540.993 646.995 531.116C646.995 521.239 595.609 513.232 532.221 513.232C468.833 513.232 417.447 521.239 417.447 531.116C417.447 540.993 468.833 549 532.221 549Z" fill="#F2F2F2"/>
<path d="M550.853 542.294C614.241 542.294 665.627 534.287 665.627 524.41C665.627 514.533 614.241 506.526 550.853 506.526C487.465 506.526 436.079 514.533 436.079 524.41C436.079 534.287 487.465 542.294 550.853 542.294Z" stroke="#3F3D56" stroke-miterlimit="10"/>
<path d="M599.661 339.385C601.346 339.998 603.149 340.21 604.93 340.007C606.711 339.803 608.42 339.189 609.923 338.212C611.425 337.235 612.681 335.923 613.59 334.378C614.499 332.834 615.037 331.099 615.161 329.312C615.285 327.524 614.992 325.732 614.305 324.076C613.619 322.421 612.557 320.948 611.203 319.773C609.85 318.598 608.242 317.753 606.507 317.305C604.771 316.858 602.955 316.819 601.202 317.193L601.492 323.149L598.674 318.044C595.908 319.344 593.771 321.688 592.733 324.562C592.364 325.569 592.14 326.623 592.067 327.692C591.889 330.202 592.534 332.701 593.905 334.811C595.275 336.921 597.296 338.527 599.661 339.385Z" fill="#57B894"/>
<path d="M613.606 408.463C612.611 403.398 616.922 398.907 621.18 395.989C625.438 393.07 630.414 390.202 631.867 385.249C633.955 378.13 627.735 371.61 622.894 365.988C619.303 361.816 616.218 357.233 613.706 352.335C612.613 350.411 611.869 348.309 611.508 346.126C611.126 342.971 612.14 339.831 613.162 336.821C616.565 326.794 620.203 316.851 624.077 306.992" stroke="#3F3D56" stroke-miterlimit="10"/>
<path d="M600.138 337.852C601.822 338.464 603.626 338.677 605.407 338.473C607.187 338.27 608.896 337.655 610.399 336.679C611.902 335.702 613.157 334.39 614.066 332.845C614.975 331.301 615.513 329.566 615.637 327.778C615.761 325.99 615.469 324.198 614.782 322.543C614.095 320.888 613.033 319.414 611.68 318.239C610.326 317.064 608.719 316.22 606.983 315.772C605.248 315.324 603.432 315.286 601.679 315.659L601.969 321.615L599.15 316.511C596.384 317.81 594.247 320.155 593.209 323.029C592.841 324.035 592.617 325.089 592.544 326.159C592.366 328.668 593.011 331.167 594.381 333.278C595.751 335.388 597.772 336.993 600.138 337.852V337.852Z" stroke="#3F3D56" stroke-miterlimit="10"/>
<path d="M612.191 304.935C612.852 303.112 613.962 301.484 615.417 300.201C616.873 298.919 618.628 298.024 620.521 297.598L621.474 303.26L623.241 297.313C625.694 297.349 628.072 298.164 630.031 299.64C631.991 301.116 633.431 303.176 634.143 305.523C634.855 307.87 634.803 310.383 633.993 312.698C633.184 315.014 631.66 317.012 629.641 318.405C627.622 319.798 625.212 320.513 622.759 320.448C620.307 320.382 617.939 319.539 615.997 318.04C614.055 316.541 612.64 314.464 611.956 312.109C611.272 309.753 611.354 307.241 612.191 304.935H612.191Z" fill="#57B894"/>
<path d="M612.827 302.891C613.488 301.067 614.597 299.439 616.053 298.157C617.509 296.874 619.264 295.979 621.157 295.553L622.11 301.215L623.876 295.269C626.329 295.305 628.707 296.12 630.667 297.595C632.626 299.071 634.066 301.131 634.778 303.478C635.49 305.826 635.438 308.338 634.629 310.654C633.82 312.969 632.296 314.968 630.276 316.361C628.257 317.754 625.847 318.469 623.395 318.403C620.943 318.338 618.575 317.495 616.633 315.996C614.691 314.497 613.276 312.42 612.592 310.064C611.908 307.709 611.99 305.197 612.827 302.891V302.891Z" stroke="#3F3D56" stroke-miterlimit="10"/>
<path d="M620.863 366.103C623.534 367.072 626.469 367.024 629.107 365.969C631.746 364.913 633.903 362.924 635.169 360.38C636.435 357.836 636.721 354.916 635.971 352.175C635.221 349.434 633.489 347.065 631.105 345.519L629.748 350.089L628.785 344.36C628.775 344.355 628.766 344.352 628.755 344.349C627.327 343.831 625.81 343.599 624.292 343.667C622.774 343.735 621.284 344.101 619.907 344.744C618.53 345.388 617.294 346.297 616.268 347.418C615.243 348.539 614.448 349.852 613.93 351.28C613.412 352.709 613.18 354.225 613.248 355.743C613.316 357.261 613.682 358.751 614.326 360.127C614.97 361.504 615.878 362.74 617 363.765C618.121 364.79 619.434 365.585 620.863 366.103Z" fill="#57B894"/>
<path d="M621.413 364.032C624.085 365.001 627.019 364.953 629.658 363.898C632.296 362.842 634.454 360.853 635.72 358.309C636.986 355.765 637.271 352.845 636.522 350.104C635.772 347.363 634.04 344.994 631.656 343.448L630.298 348.018L629.336 342.289C629.326 342.284 629.316 342.281 629.306 342.278C626.421 341.231 623.238 341.374 620.458 342.674C617.677 343.973 615.527 346.324 614.481 349.209C613.434 352.094 613.577 355.276 614.877 358.056C616.177 360.836 618.528 362.986 621.413 364.032V364.032Z" stroke="#3F3D56" stroke-miterlimit="10"/>
<path d="M608.814 385.32C609.273 387.933 610.617 390.309 612.62 392.049C614.624 393.789 617.165 394.787 619.817 394.876C622.469 394.966 625.071 394.141 627.187 392.539C629.303 390.938 630.804 388.658 631.438 386.081C632.072 383.505 631.801 380.789 630.67 378.389C629.539 375.988 627.617 374.05 625.226 372.898C622.835 371.747 620.121 371.452 617.539 372.064C614.957 372.676 612.664 374.157 611.044 376.258L616.2 384.018L609.155 379.899C608.608 381.653 608.491 383.512 608.814 385.32Z" fill="#57B894"/>
<path d="M609.291 383.786C609.75 386.399 611.094 388.775 613.098 390.515C615.101 392.255 617.642 393.254 620.294 393.343C622.946 393.432 625.549 392.607 627.665 391.006C629.781 389.404 631.282 387.124 631.916 384.548C632.55 381.971 632.279 379.255 631.148 376.855C630.016 374.455 628.094 372.516 625.704 371.365C623.313 370.213 620.599 369.919 618.017 370.531C615.434 371.142 613.141 372.623 611.521 374.725L616.678 382.485L609.632 378.366C609.086 380.119 608.969 381.978 609.291 383.786V383.786Z" stroke="#3F3D56" stroke-miterlimit="10"/>
<path d="M597.538 415.324C597.538 415.324 607.751 411.322 610.829 409.131C613.906 406.94 626.538 404.323 627.302 407.838C628.065 411.352 642.649 425.317 631.119 425.41C619.589 425.503 604.329 427.301 601.257 425.43C598.185 423.559 597.538 415.324 597.538 415.324Z" fill="#656380"/>
<path opacity="0.2" d="M631.325 424.186C619.795 424.279 604.535 426.078 601.463 424.207C599.123 422.782 598.191 417.67 597.879 415.311C597.663 415.32 597.538 415.324 597.538 415.324C597.538 415.324 598.185 423.559 601.257 425.43C604.329 427.301 619.589 425.503 631.119 425.41C634.448 425.383 635.597 424.199 635.534 422.445C635.072 423.505 633.802 424.166 631.325 424.186Z" fill="black"/>
<path d="M154.385 307.753H127.332C122.454 307.753 118.5 311.707 118.5 316.584V416.658C118.5 421.535 122.454 425.489 127.332 425.489H154.385C159.263 425.489 163.217 421.535 163.217 416.658V316.584C163.217 311.707 159.263 307.753 154.385 307.753Z" fill="#5390D9"/>
<path d="M239.348 236.962H212.295C207.417 236.962 203.463 240.916 203.463 245.793V416.658C203.463 421.535 207.417 425.489 212.295 425.489H239.348C244.226 425.489 248.18 421.535 248.18 416.658V245.793C248.18 240.916 244.226 236.962 239.348 236.962Z" fill="#5390D9"/>
<path d="M324.311 187.781H297.258C292.38 187.781 288.426 191.735 288.426 196.612V416.658C288.426 421.535 292.38 425.489 297.258 425.489H324.311C329.189 425.489 333.143 421.535 333.143 416.658V196.612C333.143 191.735 329.189 187.781 324.311 187.781Z" fill="#5390D9"/>
<path d="M409.274 140.836H382.221C377.343 140.836 373.389 144.79 373.389 149.667V416.658C373.389 421.535 377.343 425.489 382.221 425.489H409.274C414.152 425.489 418.106 421.535 418.106 416.658V149.667C418.106 144.79 414.152 140.836 409.274 140.836Z" fill="#5390D9"/>
<path d="M494.236 58.868H467.183C462.305 58.868 458.351 62.8216 458.351 67.6986V416.658C458.351 421.535 462.305 425.489 467.183 425.489H494.236C499.114 425.489 503.068 421.535 503.068 416.658V67.6986C503.068 62.8216 499.114 58.868 494.236 58.868Z" fill="#5390D9"/>
<path d="M160.348 301.792H133.295C128.417 301.792 124.463 305.745 124.463 310.622V410.697C124.463 415.574 128.417 419.528 133.295 419.528H160.348C165.226 419.528 169.18 415.574 169.18 410.697V310.622C169.18 305.745 165.226 301.792 160.348 301.792Z" stroke="#3F3D56" stroke-miterlimit="10"/>
<path d="M245.311 231.001H218.258C213.38 231.001 209.426 234.955 209.426 239.832V410.697C209.426 415.574 213.38 419.528 218.258 419.528H245.311C250.189 419.528 254.143 415.574 254.143 410.697V239.832C254.143 234.955 250.189 231.001 245.311 231.001Z" stroke="#3F3D56" stroke-miterlimit="10"/>
<path d="M330.273 181.82H303.22C298.342 181.82 294.388 185.774 294.388 190.651V410.697C294.388 415.574 298.342 419.528 303.22 419.528H330.273C335.151 419.528 339.105 415.574 339.105 410.697V190.651C339.105 185.774 335.151 181.82 330.273 181.82Z" stroke="#3F3D56" stroke-miterlimit="10"/>
<path d="M415.236 134.875H388.183C383.305 134.875 379.351 138.828 379.351 143.705V410.697C379.351 415.574 383.305 419.528 388.183 419.528H415.236C420.113 419.528 424.068 415.574 424.068 410.697V143.705C424.068 138.828 420.113 134.875 415.236 134.875Z" stroke="#3F3D56" stroke-miterlimit="10"/>
<path d="M500.199 52.9067H473.146C468.268 52.9067 464.313 56.8603 464.313 61.7373V410.697C464.313 415.574 468.268 419.528 473.146 419.528H500.199C505.076 419.528 509.031 415.574 509.031 410.697V61.7373C509.031 56.8603 505.076 52.9067 500.199 52.9067Z" stroke="#3F3D56" stroke-miterlimit="10"/>
<path d="M641.691 425.862H0" stroke="#3F3D56" stroke-miterlimit="10"/>
<path d="M601.224 354.382C601.224 354.382 608.238 379.628 599.353 383.368C590.469 387.108 593.275 355.317 593.275 355.317L601.224 354.382Z" fill="#A0616A"/>
<path d="M537.633 516.14C537.633 516.14 531.087 515.673 528.749 517.075C528.049 517.485 527.269 517.738 526.462 517.819C525.655 517.9 524.84 517.806 524.073 517.543C524.073 517.543 513.786 516.608 517.527 521.751C521.268 526.893 525.008 528.763 525.008 531.101C525.008 533.438 540.439 533.438 540.906 531.101C541.374 528.763 541.841 516.608 540.906 516.14C539.971 515.673 537.633 516.14 537.633 516.14Z" fill="#575A89"/>
<path d="M554.933 516.14C554.933 516.14 561.479 515.673 563.817 517.075C564.517 517.485 565.297 517.738 566.104 517.819C566.911 517.9 567.726 517.806 568.493 517.543C568.493 517.543 578.78 516.608 575.039 521.751C571.299 526.893 567.558 528.763 567.558 531.101C567.558 533.438 552.128 533.438 551.66 531.101C551.192 528.763 550.725 516.608 551.66 516.14C552.595 515.673 554.933 516.14 554.933 516.14Z" fill="#575A89"/>
<path d="M518.461 349.24C518.461 349.24 515.188 423.106 517.059 426.846C518.929 430.586 525.475 493.7 524.54 497.44C523.605 501.18 518.929 516.608 524.54 518.945C530.151 521.283 542.308 518.945 542.308 518.945C542.308 518.945 545.581 500.245 544.179 490.427C542.776 480.61 542.308 439.469 542.308 439.469L551.66 396.458L554.933 437.131C554.933 437.131 555.868 492.765 549.322 503.985C542.776 515.205 551.66 519.881 551.66 519.881C551.66 519.881 569.428 522.218 571.299 521.751C573.169 521.283 569.896 503.05 571.299 495.103C572.701 487.155 575.974 442.742 578.78 431.989C581.585 421.236 597.483 361.395 585.794 349.24C574.104 337.085 518.461 349.24 518.461 349.24Z" fill="#3F3D56"/>
<path d="M552.595 200.105C561.633 200.105 568.96 192.779 568.96 183.742C568.96 174.705 561.633 167.379 552.595 167.379C543.557 167.379 536.229 174.705 536.229 183.742C536.229 192.779 543.557 200.105 552.595 200.105Z" fill="#A0616A"/>
<path d="M540.438 191.222C540.438 191.222 543.244 213.662 541.841 214.13C540.438 214.597 566.623 214.13 566.623 214.13C566.623 214.13 561.48 200.572 566.623 189.819L540.438 191.222Z" fill="#A0616A"/>
<path d="M540.438 209.455C540.438 209.455 551.835 198.234 565.308 209.455L566.18 212.799L559.142 212.727H540.438V209.455Z" fill="#F2F2F2"/>
<path d="M596.081 352.98C595.001 353.195 592.354 353.634 588.904 354.158C577.415 355.893 557.056 358.52 556.336 356.72C555.401 354.382 552.128 345.967 549.79 349.707C547.452 353.447 548.855 356.72 539.036 357.187C532.354 357.505 522.642 356.524 517.265 354.981C514.74 354.256 513.169 353.41 513.318 352.512C513.786 349.707 518.929 296.411 518.929 291.269C518.929 286.126 520.8 261.348 520.8 261.348L507.361 234.911L506.305 232.83C506.305 232.83 507.707 227.688 511.916 226.753C516.124 225.818 536.23 214.13 536.23 214.13C536.23 214.13 540.438 207.585 548.387 208.052C556.336 208.52 558.207 205.247 568.961 214.13C568.961 214.13 582.053 219.74 586.729 222.545C591.405 225.35 596.549 225.35 597.016 230.025C597.11 230.965 596.6 232.774 595.726 235.06C592.523 243.438 584.429 258.263 583.162 260.572C583.049 260.773 582.989 260.881 582.989 260.881C582.989 260.881 582.745 269.287 583.003 279.128V279.151C583.255 288.59 583.966 299.347 585.794 305.294C589.535 317.449 600.757 352.045 596.081 352.98Z" fill="#575A89"/>
<path d="M573.841 177.025C573.514 175.535 572.884 174.129 571.991 172.892C571.635 169.473 570.495 166.182 568.658 163.276C567.938 161.914 566.917 160.735 565.671 159.829C564.245 159.008 562.617 158.602 560.972 158.658C560.674 158.653 560.137 158.744 559.654 158.766C559.345 158.67 559.033 158.584 558.72 158.504C558.538 158.098 558.176 156.915 558.075 156.995L556.712 158.078C556.135 157.978 555.556 157.9 554.974 157.838C554.762 157.234 554.55 156.63 554.339 156.026C553.995 156.567 553.694 157.133 553.438 157.719C552.859 157.691 552.28 157.681 551.7 157.69L550.541 156.576C550.473 156.887 550.315 157.171 550.088 157.393C549.861 157.615 549.574 157.767 549.262 157.829C548.729 157.883 548.198 157.955 547.669 158.04C547.626 158.04 547.582 158.04 547.54 158.039C544.686 157.968 541.615 157.84 539.228 159.406C538.111 160.173 537.202 161.205 536.582 162.409C536.29 162.607 535.997 162.804 535.713 163.015C534.756 163.668 533.926 164.49 533.265 165.442C532.784 166.262 532.42 167.145 532.182 168.066C531.271 170.837 530.849 173.745 530.935 176.66C531.032 179.596 532.14 182.407 534.071 184.621C535.295 185.936 536.851 186.907 538.077 188.22C540.6 190.924 541.073 194.696 543.232 197.557C545.515 200.584 549.682 202.575 553.342 203.146C555.542 203.478 557.787 203.371 559.946 202.833C562.105 202.295 564.136 201.335 565.923 200.009C566.78 199.412 567.509 198.648 568.065 197.764C569.335 195.567 568.797 192.806 569.268 190.313C570.152 185.639 574.613 181.718 573.841 177.025Z" fill="#3F3D56"/>
<path d="M511.449 355.785C511.449 355.785 518.462 381.03 509.578 384.77C500.694 388.51 503.499 356.72 503.499 356.72L511.449 355.785Z" fill="#A0616A"/>
<path opacity="0.1" d="M519.86 298.496C519.86 298.496 516.792 344.013 517.265 354.981C514.74 354.256 513.169 353.41 513.318 352.512C513.786 349.707 518.929 296.411 518.929 291.269C518.929 286.126 520.8 261.348 520.8 261.348L507.361 234.911C507.576 233.601 507.707 232.83 507.707 232.83L514.487 247.089L524.073 249.66L519.86 298.496Z" fill="black"/>
<path d="M509.577 230.025L506.304 232.83C506.304 232.83 502.096 257.608 502.564 263.686C503.031 269.763 492.744 361.863 500.693 361.863C508.642 361.863 517.526 360.46 516.124 357.187C514.721 353.915 518.459 298.496 518.459 298.496L522.67 249.66L509.577 230.025Z" fill="#575A89"/>
<path opacity="0.1" d="M595.725 235.06C592.522 243.438 584.428 258.263 583.161 260.572C583.199 254.593 583.222 250.362 583.222 250.362L593.041 230.259L595.145 228.623C595.145 228.623 595.37 231.096 595.725 235.06Z" fill="black"/>
<path opacity="0.1" d="M596.081 352.98C595 353.195 592.354 353.634 588.903 354.158C587.112 340.918 582.324 302.844 582.628 299.258C582.778 297.491 582.904 288.758 583.002 279.151C583.255 288.59 583.965 299.347 585.794 305.294C589.534 317.449 600.757 352.045 596.081 352.98Z" fill="black"/>
<path d="M590.002 226.752L597.016 228.622C597.016 228.622 601.691 280.516 602.159 289.399C602.627 298.281 608.238 352.98 607.302 355.317C606.367 357.655 591.872 360.928 591.405 358.59C590.937 356.252 584.14 303.506 584.499 299.258C584.858 295.009 582.521 251.063 582.521 251.063L590.002 226.752Z" fill="#575A89"/>
<path d="M146.448 256.709L231.411 185.919L317.119 137.483L402.081 90.5376L487.044 8.56946" stroke="#3F3D56" stroke-miterlimit="10"/>
<path d="M144.213 268.632C148.741 268.632 152.411 264.962 152.411 260.435C152.411 255.908 148.741 252.238 144.213 252.238C139.685 252.238 136.015 255.908 136.015 260.435C136.015 264.962 139.685 268.632 144.213 268.632Z" fill="#F2F2F2"/>
<path d="M229.176 197.841C233.703 197.841 237.374 194.171 237.374 189.644C237.374 185.117 233.703 181.448 229.176 181.448C224.648 181.448 220.978 185.117 220.978 189.644C220.978 194.171 224.648 197.841 229.176 197.841Z" fill="#F2F2F2"/>
<path d="M314.883 149.405C319.41 149.405 323.081 145.736 323.081 141.209C323.081 136.682 319.41 133.012 314.883 133.012C310.355 133.012 306.685 136.682 306.685 141.209C306.685 145.736 310.355 149.405 314.883 149.405Z" fill="#F2F2F2"/>
<path d="M399.846 102.46C404.373 102.46 408.044 98.7903 408.044 94.2633C408.044 89.7364 404.373 86.0665 399.846 86.0665C395.318 86.0665 391.647 89.7364 391.647 94.2633C391.647 98.7903 395.318 102.46 399.846 102.46Z" fill="#F2F2F2"/>
<path d="M484.809 20.492C489.336 20.492 493.007 16.8222 493.007 12.2952C493.007 7.76823 489.336 4.09839 484.809 4.09839C480.281 4.09839 476.61 7.76823 476.61 12.2952C476.61 16.8222 480.281 20.492 484.809 20.492Z" fill="#F2F2F2"/>
<path d="M146.449 264.906C150.977 264.906 154.647 261.236 154.647 256.709C154.647 252.182 150.977 248.512 146.449 248.512C141.921 248.512 138.251 252.182 138.251 256.709C138.251 261.236 141.921 264.906 146.449 264.906Z" stroke="#3F3D56" stroke-miterlimit="10"/>
<path d="M231.411 194.115C235.939 194.115 239.609 190.446 239.609 185.919C239.609 181.392 235.939 177.722 231.411 177.722C226.883 177.722 223.213 181.392 223.213 185.919C223.213 190.446 226.883 194.115 231.411 194.115Z" stroke="#3F3D56" stroke-miterlimit="10"/>
<path d="M317.119 145.68C321.647 145.68 325.317 142.01 325.317 137.483C325.317 132.956 321.647 129.286 317.119 129.286C312.591 129.286 308.921 132.956 308.921 137.483C308.921 142.01 312.591 145.68 317.119 145.68Z" stroke="#3F3D56" stroke-miterlimit="10"/>
<path d="M402.082 98.7343C406.61 98.7343 410.28 95.0645 410.28 90.5375C410.28 86.0105 406.61 82.3407 402.082 82.3407C397.554 82.3407 393.884 86.0105 393.884 90.5375C393.884 95.0645 397.554 98.7343 402.082 98.7343Z" stroke="#3F3D56" stroke-miterlimit="10"/>
<path d="M487.044 16.7662C491.572 16.7662 495.242 13.0963 495.242 8.56937C495.242 4.04239 491.572 0.372559 487.044 0.372559C482.516 0.372559 478.846 4.04239 478.846 8.56937C478.846 13.0963 482.516 16.7662 487.044 16.7662Z" stroke="#3F3D56" stroke-miterlimit="10"/>
</g>
<defs>
<clipPath id="clip0">
<rect width="666" height="549" fill="white"/>
</clipPath>
</defs>
</svg>
