<svg width="15" height="15" viewBox="0 0 15 15" fill="none" xmlns="http://www.w3.org/2000/svg">
<path fill-rule="evenodd" clip-rule="evenodd" d="M12.8144 2.06719C12.1226 1.40997 11.2994 0.888847 10.3925 0.534008C9.48571 0.179168 8.51329 -0.00233193 7.5316 2.26181e-05C3.41513 2.26181e-05 0.0640598 3.16162 0.0623959 7.04787C0.0623959 8.2899 0.405989 9.50209 1.05907 10.5714L0 14.2229L3.95923 13.2423C5.05439 13.8049 6.28135 14.0999 7.52827 14.1004H7.5316C11.6472 14.1004 14.9983 10.9388 15 7.05258C15.0028 6.12654 14.8111 5.20916 14.436 4.35345C14.0608 3.49775 13.5097 2.72069 12.8144 2.06719ZM7.5316 12.911H7.5291C6.41722 12.9111 5.32581 12.6288 4.36938 12.0937L4.14309 11.9665L1.79367 12.5483L2.42013 10.3869L2.27287 10.1655C1.65123 9.23157 1.32215 8.15076 1.32362 7.04787C1.32529 3.81797 4.10981 1.19023 7.53409 1.19023C8.34961 1.18852 9.15739 1.33947 9.91067 1.63433C10.664 1.92919 11.3478 2.36211 11.9226 2.90803C12.5005 3.45136 12.9585 4.09738 13.2703 4.80876C13.582 5.52014 13.7412 6.28278 13.7387 7.05258C13.7371 10.2825 10.9526 12.911 7.5316 12.911ZM10.9367 8.52307C10.7496 8.43436 9.83276 8.00883 9.66138 7.94995C9.49083 7.89107 9.36687 7.86202 9.24208 8.03788C9.11729 8.21374 8.75955 8.61022 8.65056 8.72798C8.54158 8.84575 8.4326 8.85988 8.24624 8.77195C8.05988 8.68402 7.45839 8.49795 6.74541 7.89813C6.1905 7.431 5.81613 6.85473 5.70714 6.67809C5.59816 6.50144 5.6955 6.40644 5.78951 6.31851C5.87353 6.24 5.97586 6.11281 6.06904 6.00997C6.16222 5.90712 6.193 5.8341 6.25539 5.71634C6.31779 5.59857 6.28701 5.49572 6.23959 5.40779C6.193 5.31908 5.81946 4.45233 5.66388 4.09982C5.5133 3.7583 5.35939 3.80383 5.24458 3.79912C5.12568 3.79453 5.00668 3.79244 4.88768 3.79284C4.79305 3.79512 4.69994 3.81582 4.61418 3.85365C4.52843 3.89148 4.45188 3.94561 4.38934 4.01267C4.21796 4.18932 3.73627 4.61484 3.73627 5.48159C3.73627 6.34834 4.40515 7.18605 4.49833 7.30381C4.5915 7.42158 5.81446 9.19983 7.68634 9.96295C8.13226 10.1443 8.48002 10.2526 8.7504 10.3343C9.19715 10.4686 9.60397 10.4489 9.92594 10.4042C10.2845 10.3539 11.0299 9.97865 11.1855 9.56726C11.3411 9.15586 11.3411 8.80335 11.2945 8.72955C11.2479 8.65576 11.1223 8.611 10.9367 8.52307Z" fill="#1C2363"/>
</svg>
